<svg width="120" height="33" viewBox="0 0 120 33" fill="none" xmlns="http://www.w3.org/2000/svg">
<path fill-rule="evenodd" clip-rule="evenodd" d="M62.8994 16.0987C62.8994 15.9226 62.8994 15.6877 62.8402 15.5116C62.2485 15.4529 61.6568 15.5116 61.0651 15.5116C61.0651 10.6389 61.0651 5.76618 61.0651 0.893463C61.6568 0.893463 62.2485 0.893463 62.8402 0.893463C62.8994 0.71734 62.8994 0.482511 62.8994 0.306388C62.7219 0.306388 62.5444 0.247681 62.3077 0.247681C60.1183 0.247681 57.8698 0.247681 55.6805 0.247681C55.4438 0.247681 55.2663 0.247681 55.0296 0.306388C54.8521 0.482511 54.9704 0.71734 54.9704 0.893463C55.5621 0.95217 56.1538 0.893463 56.7455 0.893463C56.7455 5.76618 56.7455 10.6389 56.7455 15.5116C56.1538 15.5703 55.5621 15.4529 54.9704 15.5703C54.8521 15.7465 54.9112 15.9813 54.9704 16.1574C57.1597 16.2161 59.3491 16.1574 61.5384 16.1574C62.0118 16.1574 62.426 16.2161 62.8994 16.0987Z" fill="#F1F1F2"/>
<path fill-rule="evenodd" clip-rule="evenodd" d="M30.8283 1.01074C29.2898 0.188833 27.5146 -0.163412 25.7987 0.0714176C24.0827 0.24754 22.4259 1.01074 21.1833 2.24359C19.8815 3.53516 19.1123 5.35509 18.9939 7.17502C18.8164 8.87754 19.0531 10.6975 19.8223 12.2826C20.4732 13.6328 21.5383 14.6896 22.8401 15.3941C24.7927 16.4508 27.1596 16.6269 29.2898 16.0398C30.9466 15.5702 32.4259 14.5135 33.3726 13.1632C34.3194 11.7542 34.7927 10.0517 34.7927 8.34917C34.7927 7.17502 34.6152 6.00087 34.201 4.88543C33.6093 3.24162 32.3667 1.83264 30.8283 1.01074ZM29.9407 13.2806C29.7632 14.1612 29.349 15.0418 28.5206 15.4528C27.7513 15.8637 26.8046 15.8637 25.9762 15.6876C25.1478 15.5115 24.4969 14.807 24.201 14.0438C23.846 13.1632 23.7277 12.2239 23.6685 11.2845C23.5501 9.75815 23.6093 8.29046 23.6093 6.76407C23.6093 5.58992 23.6685 4.41577 23.9052 3.30033C24.0827 2.53713 24.3785 1.71523 25.0294 1.24557C25.4436 0.893322 25.9762 0.7172 26.5087 0.658492C27.4555 0.541077 28.5797 0.7172 29.2306 1.4804C29.8815 2.24359 30.1182 3.30033 30.2365 4.29835C30.4141 5.70733 30.3549 7.11631 30.3549 8.52529C30.2365 10.1104 30.2957 11.6955 29.9407 13.2806Z" fill="#F1F1F2"/>
<path fill-rule="evenodd" clip-rule="evenodd" d="M0.0592956 15.5702C0.0592956 15.8051 -0.0590475 16.1573 0.23681 16.216C1.53858 16.216 2.89953 16.216 4.2013 16.216C4.55633 16.216 4.43799 15.8051 4.43799 15.6289C3.7871 15.5115 3.19539 15.6289 2.5445 15.5702C2.5445 11.7542 2.5445 7.93826 2.5445 4.12227C6.21314 8.11438 9.8226 12.1065 13.4912 16.0986C13.6688 16.3334 14.0238 16.1573 14.2605 16.216C14.2605 11.1085 14.2605 6.05962 14.2605 0.952068C14.9114 0.952068 15.5031 1.01078 16.154 0.893361C16.154 0.717238 16.154 0.482409 16.154 0.306286C15.2072 0.247579 14.2605 0.306286 13.3137 0.247579C12.8404 0.247579 12.3078 0.188871 11.8344 0.247579C11.7161 0.423701 11.7161 0.658531 11.8344 0.834653C12.4262 0.893361 13.0179 0.834653 13.6688 0.834653C13.6688 3.77003 13.6688 6.7054 13.6688 9.58207C10.7693 6.47057 7.92911 3.30037 5.02971 0.188871C3.3729 0.188871 1.7161 0.130164 0.0592956 0.247579C0.0592956 0.423701 0.0592956 0.658531 0.0592956 0.834653C0.651011 0.893361 1.3019 0.834653 1.89361 0.893361C1.89361 5.76608 1.89361 10.6388 1.89361 15.5115C1.3019 15.5115 0.651011 15.4528 0.0592956 15.5702Z" fill="#F1F1F2"/>
<path fill-rule="evenodd" clip-rule="evenodd" d="M97.3965 1.06944C95.858 0.188829 93.9645 -0.163416 92.1894 0.0714141C90.1775 0.306244 88.2249 1.30427 87.0414 2.88937C85.6805 4.59189 85.2663 6.82277 85.3846 8.93624C85.503 10.8149 86.1539 12.6348 87.4556 13.9851C88.5207 15.1592 90.0592 15.9224 91.5977 16.216C94.2604 16.7443 97.2781 15.9811 99.1716 13.9264C100.355 12.6935 101.006 10.991 101.183 9.28849C101.361 7.58597 101.124 5.88345 100.414 4.35706C99.8225 3.00679 98.7574 1.83264 97.3965 1.06944ZM96.6864 9.93427C96.6272 11.3432 96.6272 12.8109 96.0355 14.1612C95.6805 14.9244 94.9704 15.5115 94.142 15.6876C93.1953 15.8637 92.071 15.805 91.3018 15.1005C90.6509 14.5135 90.355 13.6328 90.1775 12.8109C89.8225 10.991 89.9408 9.17107 89.9408 7.35114C89.9408 6.11828 89.9408 4.94413 90.1775 3.71128C90.355 2.88937 90.5326 2.06747 91.1243 1.48039C91.5385 1.01073 92.071 0.717196 92.6627 0.658489C93.6095 0.482366 94.6746 0.599781 95.3846 1.24556C96.0355 1.83264 96.3314 2.71325 96.4497 3.53515C96.8048 5.70733 96.6272 7.8208 96.6864 9.93427Z" fill="#F1F1F2"/>
<path fill-rule="evenodd" clip-rule="evenodd" d="M104.675 0.952131C104.852 1.30438 105.03 1.71533 105.207 2.12628C106.864 5.94227 108.521 9.81696 110.118 13.6329C110.533 14.5136 110.828 15.3942 111.243 16.2161C111.479 16.3335 111.775 16.2748 112.012 16.2161C112.367 15.4529 112.604 14.6897 112.899 13.9265C113.728 11.813 114.556 9.69954 115.385 7.58607C116.272 5.35519 117.101 3.12431 117.988 0.893424C118.521 0.893424 119.112 0.893424 119.645 0.893424C120 0.893424 120 0.188934 119.645 0.247641C118.225 0.247641 116.864 0.188934 115.444 0.247641C115.444 0.423764 115.385 0.658594 115.444 0.834716C116.035 0.952131 116.627 0.834716 117.16 0.893424C116.331 3.00689 115.503 5.12036 114.675 7.23383C114.26 8.23186 113.846 9.28859 113.432 10.2866C112.071 7.11641 110.71 4.00492 109.349 0.834716C109.941 0.834716 110.533 0.893424 111.124 0.834716C111.243 0.658594 111.243 0.482471 111.183 0.306349C111.006 0.188934 110.769 0.247641 110.533 0.188934C107.929 0.188934 105.266 0.130227 102.604 0.188934C102.604 0.365056 102.544 0.541179 102.544 0.776009C103.373 1.01084 104.083 0.776009 104.675 0.952131Z" fill="#F1F1F2"/>
<path fill-rule="evenodd" clip-rule="evenodd" d="M82.8994 16.1575C82.8994 15.9814 82.8994 15.7465 82.8402 15.5704C82.426 15.453 82.0118 15.5704 81.5976 15.5117C79.8225 12.9873 78.0473 10.5216 76.2722 8.05586C75.6804 7.29267 75.1479 6.41206 74.5562 5.70757C74.6154 5.59015 74.6745 5.47274 74.7337 5.41403C76.0355 3.94634 77.3964 2.47866 78.6982 1.01097C79.5266 0.952262 80.355 1.06968 81.1242 0.952262C81.1242 0.776139 81.1242 0.600017 81.1242 0.365187C80.355 0.306479 79.5858 0.365187 78.8165 0.306479C77.8106 0.306479 76.8639 0.247772 75.858 0.365187C75.858 0.541309 75.858 0.776139 75.858 0.952262C76.5088 1.06968 77.1597 0.952262 77.8106 1.01097C76.568 2.41995 75.2662 3.82893 73.9645 5.23791C73.1952 6.11852 72.426 6.94042 71.6568 7.76233C71.6568 5.47274 71.6568 3.24185 71.6568 0.952262C72.2485 0.952262 72.8402 1.01097 73.4319 0.893554C73.4911 0.658724 73.5503 0.247772 73.2544 0.247772C70.9467 0.189064 68.639 0.247772 66.3313 0.247772C66.0946 0.247772 65.7988 0.247772 65.5621 0.306479C65.4438 0.541309 65.5029 0.717432 65.5621 0.952262C66.1538 0.952262 66.7455 0.952262 67.2781 0.952262C67.2781 5.82498 67.2781 10.6977 67.2781 15.5704C66.6864 15.5704 66.0946 15.5117 65.5029 15.6291C65.5029 15.8052 65.5029 16.0401 65.5029 16.2162C66.568 16.2749 67.6331 16.2162 68.6982 16.2749C70.2958 16.2749 71.8343 16.2749 73.4319 16.2749C73.4911 16.0988 73.4911 15.864 73.4319 15.6878C72.8402 15.5704 72.2485 15.6878 71.6568 15.6291C71.6568 13.457 71.6568 11.2261 71.6568 9.05389C73.1952 11.2261 74.7337 13.457 76.2722 15.6291C75.858 15.6291 75.4438 15.6291 75.0296 15.6878C75.0296 15.864 75.0296 16.0988 75.0296 16.2749C76.3905 16.3336 77.7514 16.2749 79.1124 16.3336C80.355 16.1575 81.5976 16.2162 82.8994 16.1575Z" fill="#F1F1F2"/>
<path fill-rule="evenodd" clip-rule="evenodd" d="M96.0945 25.0809C95.7395 25.1396 95.3845 25.0809 95.0294 25.0809C94.9703 24.7287 94.9703 24.3177 94.9703 23.9655C95.2069 23.9655 95.4436 23.9655 95.6803 24.0242C95.7987 24.1416 95.917 24.3177 96.0353 24.4351C96.0353 24.0829 96.0945 23.6719 95.9762 23.3197C95.8578 23.4371 95.7987 23.6132 95.6803 23.7306C95.4436 23.7893 95.1478 23.7306 94.9111 23.7306C94.9111 23.3784 94.9111 23.0261 94.9111 22.6152C95.2069 22.6152 95.562 22.6152 95.8578 22.6152C95.917 22.7913 95.9762 23.0261 96.1537 23.1436C96.2129 22.85 96.2129 22.6152 96.272 22.3217C95.5028 22.3804 94.7336 22.3217 93.9052 22.3217C94.0827 22.4391 94.2602 22.4978 94.4377 22.6152C94.4377 23.4371 94.4969 24.2003 94.4377 25.0222C94.201 25.0809 93.9644 25.0809 93.846 25.257C94.6744 25.3157 95.5028 25.257 96.3312 25.257C96.5087 25.0222 96.5679 24.7287 96.6271 24.4938C96.5679 24.4938 96.4495 24.4938 96.4495 24.4938C96.3312 24.7287 96.2129 24.9048 96.0945 25.0809Z" fill="#F1F1F2"/>
<path fill-rule="evenodd" clip-rule="evenodd" d="M42.3076 22.439C41.6567 22.3215 41.065 22.439 40.4141 22.3802C40.4733 22.5564 40.71 22.6151 40.8875 22.6738C40.9467 23.4957 40.9467 24.3176 40.8875 25.1395C40.71 25.1982 40.5325 25.2569 40.4141 25.433C40.9467 25.433 41.4792 25.5505 41.9526 25.3156C41.7751 25.2569 41.5976 25.1982 41.3609 25.1395C41.3609 24.3176 41.3609 23.437 41.3609 22.6151C41.5976 22.6151 41.8934 22.6151 42.0709 22.7325C42.3668 22.9673 42.426 23.4957 42.1893 23.8479C42.0118 24.0828 41.7751 24.0241 41.5384 24.0241C41.5384 24.0828 41.5384 24.2002 41.5384 24.2589C41.9526 24.2589 42.4851 24.2002 42.7218 23.7892C43.0177 23.2609 42.8402 22.5564 42.3076 22.439Z" fill="#F1F1F2"/>
<path fill-rule="evenodd" clip-rule="evenodd" d="M63.4911 31.8907C63.1953 31.9495 62.8994 31.9495 62.6627 31.832C62.6036 31.4798 62.6036 31.1863 62.6036 30.834C62.8403 30.834 63.0769 30.834 63.3136 30.8927C63.3728 31.0101 63.432 31.1863 63.5503 31.245C63.6095 30.8927 63.6095 30.5405 63.5503 30.2469C63.432 30.3644 63.3728 30.4818 63.3136 30.5992C63.0769 30.5992 62.8403 30.5992 62.6036 30.5992C62.6036 30.2469 62.6036 29.9534 62.6036 29.6012C62.8994 29.6012 63.1953 29.6012 63.4911 29.6012C63.5503 29.7186 63.5503 29.836 63.6095 29.9534C63.6687 29.9534 63.7278 29.9534 63.787 29.9534C63.787 29.7186 63.8462 29.5424 63.8462 29.3076C63.1361 29.3663 62.4261 29.3076 61.716 29.3076C61.8935 29.425 62.0119 29.4837 62.1894 29.5424C62.1894 30.2469 62.2485 31.0101 62.1894 31.7146C62.0119 31.7146 61.8935 31.7733 61.716 31.7733C61.716 31.832 61.716 31.8907 61.716 31.9495C62.4261 31.832 63.1361 32.0082 63.9053 31.8907C63.9645 31.6559 64.0829 31.3624 64.0829 31.1275C63.787 31.4798 63.7278 31.7733 63.4911 31.8907Z" fill="#F1F1F2"/>
<path fill-rule="evenodd" clip-rule="evenodd" d="M53.2545 25.257C53.077 25.1983 52.8403 25.1396 52.6628 25.0809C52.6036 24.7287 52.6036 24.3764 52.6036 24.0242C52.8995 24.0242 53.1953 24.0242 53.4912 24.0242C53.6095 24.2003 53.6095 24.3764 53.8462 24.4938C53.8462 24.0829 53.8462 23.7306 53.8462 23.3197C53.6687 23.4371 53.6095 23.6132 53.4912 23.7893C53.1953 23.7893 52.8995 23.7893 52.6036 23.7893C52.6036 23.3784 52.6628 23.0261 52.6628 22.6152C53.0178 22.6152 53.3728 22.5565 53.6687 22.6739C53.7279 22.7913 53.787 22.9674 53.787 23.0849C53.8462 23.0849 53.9054 23.0849 53.9645 23.0849C53.9645 22.85 54.0237 22.6152 54.0237 22.3217C53.1953 22.3804 52.4261 22.3217 51.5977 22.3217C51.716 22.4978 51.8935 22.5565 52.0711 22.6152C52.1302 23.4371 52.1302 24.259 52.0711 25.0809C51.8935 25.1396 51.716 25.1983 51.5385 25.3157C52.1302 25.3744 52.7219 25.4919 53.2545 25.257Z" fill="#F1F1F2"/>
<path fill-rule="evenodd" clip-rule="evenodd" d="M53.491 0.893554C53.5502 0.658724 53.6093 0.247772 53.3135 0.247772C52.2484 0.247772 51.1833 0.247772 50.1182 0.247772C49.7632 0.247772 49.4673 0.247772 49.1123 0.306479C49.0531 0.482602 49.0531 0.717432 49.1123 0.893554C49.704 0.952261 50.2365 0.893554 50.8283 0.952262C49.9999 3.06573 49.1715 5.23791 48.2839 7.35138C47.8697 8.3494 47.5147 9.34743 47.1005 10.4042C45.7395 7.17525 44.3786 4.06376 43.0176 0.893554C43.6093 0.893554 44.2602 0.952261 44.8519 0.834847C44.9703 0.658724 44.9111 0.423894 44.8519 0.247772C43.7277 0.189064 42.6034 0.247772 41.4792 0.247772C39.7632 0.247772 38.0472 0.189064 36.3904 0.247772C36.3312 0.423894 36.3312 0.600017 36.2721 0.776139C36.8638 0.952261 37.5147 0.834847 38.1656 0.893554C38.2839 0.952261 38.2839 1.12838 38.3431 1.2458C40.4732 6.17723 42.5442 11.1087 44.6744 15.9814C44.7928 16.3336 45.2661 16.2749 45.562 16.1575C45.8579 15.453 46.1537 14.7485 46.4496 14.044C47.3371 11.8718 48.1655 9.64097 49.0531 7.46879C49.8815 5.35532 50.7099 3.18315 51.5975 1.06968C51.5975 1.01097 51.6567 0.952262 51.7158 0.952262C52.2484 0.893554 52.8401 0.952261 53.491 0.893554Z" fill="#F1F1F2"/>
<path fill-rule="evenodd" clip-rule="evenodd" d="M49.8226 29.66C49.9409 29.6013 50.1184 29.5426 50.2368 29.5426C50.1184 29.4839 50.0001 29.4252 49.8817 29.4252C49.5267 29.4252 49.1717 29.3665 48.8758 29.5426C49.0533 29.6013 49.1717 29.66 49.3492 29.7187C49.4084 30.4232 49.4084 31.1864 49.3492 31.8909C49.1717 31.9496 49.0533 32.0083 48.8758 32.067C49.3492 32.2431 49.8226 32.1257 50.3551 32.1844C50.1776 32.067 50.0001 31.9496 49.8226 31.8909C49.7634 31.1277 49.7634 30.4232 49.8226 29.66Z" fill="#F1F1F2"/>
<path fill-rule="evenodd" clip-rule="evenodd" d="M72.6034 23.9066C72.6034 23.4956 72.5442 23.026 72.6034 22.615C72.7809 22.5563 73.0176 22.5563 73.1359 22.3215C72.7809 22.2628 72.485 22.3215 72.13 22.3215C71.8342 23.0847 71.4791 23.7892 71.1241 24.4936C70.7691 23.7892 70.414 23.0847 70.1182 22.3215C69.7632 22.3215 69.4081 22.2041 69.0531 22.4389C69.2306 22.4976 69.4081 22.5563 69.6448 22.615C69.5856 23.3782 69.5856 24.0827 69.4673 24.8459C69.4673 25.1394 69.1123 25.1394 68.9348 25.3155C69.4081 25.3155 69.8815 25.3155 70.3549 25.3155C70.2365 25.0807 69.8223 25.1394 69.7632 24.8459C69.7632 24.2001 69.8223 23.613 69.8815 22.9672C70.2957 23.7304 70.5324 24.6111 71.0058 25.3743C71.42 24.6111 71.7158 23.7304 72.13 22.9672C72.1892 23.613 72.1892 24.3175 72.13 24.9633C71.9525 25.022 71.775 25.0807 71.6566 25.1394C72.13 25.3155 72.6626 25.2568 73.1951 25.1981C73.0176 25.0807 72.8401 25.022 72.7217 24.9046C72.6034 24.6698 72.6626 24.3175 72.6034 23.9066Z" fill="#F1F1F2"/>
<path fill-rule="evenodd" clip-rule="evenodd" d="M20.7692 24.1415C20.9467 24.2589 21.1834 24.3176 21.4201 24.3763C21.4201 24.6698 21.4201 24.9047 21.4201 25.1982C21.0059 25.3156 20.5917 25.3156 20.2366 25.0221C19.6449 24.5524 19.5858 23.6718 19.8816 23.026C20.1183 22.4977 20.8284 22.4389 21.3609 22.6151C21.6568 22.7325 21.6568 23.0847 21.7751 23.3196C22.071 23.1434 21.9526 22.7325 22.0118 22.4389C21.3017 22.3215 20.4733 22.2041 19.8224 22.6151C18.9349 23.2021 18.994 24.846 20 25.3156C20.6508 25.6091 21.4201 25.4917 22.071 25.3156C21.8934 25.0221 21.8934 24.7285 21.8934 24.435C21.9526 24.2589 22.1301 24.2002 22.2485 24.0828C21.7751 24.0828 21.2426 23.9653 20.7692 24.1415Z" fill="#F1F1F2"/>
<path fill-rule="evenodd" clip-rule="evenodd" d="M100.355 23.848C99.9999 23.6131 99.4082 23.437 99.4082 22.9086C99.4082 22.439 100.177 22.3216 100.355 22.7325C100.414 22.8499 100.355 23.1435 100.592 23.0848C100.651 22.8499 100.651 22.6151 100.71 22.3803C100.355 22.3216 99.9999 22.2629 99.5857 22.3216C99.1123 22.439 98.7573 22.9086 98.994 23.3783C99.1715 23.848 99.704 24.0241 100.118 24.3176C100.414 24.4937 100.414 25.0221 100.059 25.1982C99.7632 25.3156 99.4082 25.2569 99.2306 24.9634C99.1123 24.7873 99.0531 24.6111 98.9348 24.435C98.6389 24.6111 98.9348 25.0221 98.9348 25.2569C99.4673 25.5505 100.296 25.4918 100.651 24.9634C100.947 24.6111 100.769 24.0241 100.355 23.848Z" fill="#F1F1F2"/>
<path fill-rule="evenodd" clip-rule="evenodd" d="M48.3432 22.3215C47.9882 22.4389 47.6924 22.615 47.4557 22.8499C47.0415 23.4369 47.0415 24.2588 47.4557 24.8459C48.0474 25.7265 49.5267 25.6091 50.0592 24.7285C50.4142 24.2001 50.4142 23.4956 50.0592 22.9673C49.7634 22.3802 48.9941 22.1454 48.3432 22.3215ZM49.5859 24.8459C49.2308 25.3156 48.4616 25.2569 48.1066 24.8459C47.8107 24.5524 47.7515 24.0827 47.6924 23.6718C47.6924 23.2021 47.929 22.615 48.4616 22.4976C48.935 22.3802 49.4083 22.6737 49.645 23.0847C49.8817 23.6718 49.9409 24.3762 49.5859 24.8459Z" fill="#F1F1F2"/>
<path fill-rule="evenodd" clip-rule="evenodd" d="M45.7987 30.3058C45.6212 30.1297 45.6212 29.8361 45.7987 29.66C45.9762 29.5426 46.2721 29.5426 46.4496 29.66C46.5087 29.8361 46.5679 30.0122 46.6271 30.1297C46.8046 29.9535 46.8046 29.7187 46.8046 29.4839C46.6271 29.3665 46.3312 29.3665 46.0354 29.3665C45.562 29.3665 45.1478 29.7774 45.3253 30.2471C45.4436 30.8341 46.1537 30.8928 46.4496 31.3038C46.5679 31.5386 46.4496 31.7735 46.3312 31.9496C46.0354 32.0083 45.6212 31.9496 45.5028 31.5973C45.3845 31.4799 45.3845 31.2451 45.207 31.3038C45.207 31.5973 45.1478 32.067 45.562 32.1257C45.917 32.2431 46.3312 32.2431 46.6271 32.0083C46.9229 31.8322 47.1005 31.4212 46.9229 31.069C46.6863 30.7167 46.1537 30.5993 45.7987 30.3058Z" fill="#F1F1F2"/>
<path fill-rule="evenodd" clip-rule="evenodd" d="M30.7693 22.3216C30.2368 22.439 29.7042 22.85 29.5859 23.3783C29.4676 23.9654 29.5859 24.6699 30.0593 25.0809C30.651 25.6092 31.6569 25.5505 32.2486 24.9634C32.8403 24.3177 32.8403 23.2022 32.2486 22.6151C31.8344 22.3216 31.2427 22.2042 30.7693 22.3216ZM32.0119 24.7873C31.7752 25.3157 31.006 25.3157 30.5918 25.0221C30.1184 24.6699 30.0001 24.0241 30.1184 23.437C30.1776 23.0261 30.4735 22.6151 30.8877 22.5564C31.2427 22.4977 31.5977 22.6738 31.8344 22.9087C32.2486 23.3783 32.3078 24.1415 32.0119 24.7873Z" fill="#F1F1F2"/>
<path fill-rule="evenodd" clip-rule="evenodd" d="M26.2129 23.9654C26.5087 23.7305 26.8046 23.437 26.7454 23.0847C26.6862 22.7325 26.3312 22.3802 25.9762 22.3802C25.4436 22.3802 24.9703 22.439 24.4377 22.3802C24.4377 22.439 24.4377 22.4977 24.4377 22.5564C24.5561 22.6151 24.7336 22.6151 24.8519 22.6738C24.9111 23.4957 24.9111 24.3176 24.8519 25.1395C24.6744 25.1982 24.4969 25.2569 24.3785 25.3743C24.8519 25.3743 25.3253 25.433 25.7987 25.3743C25.9762 25.1982 25.5028 25.1982 25.3845 25.1395C25.3253 24.7873 25.3253 24.435 25.3253 24.0828C25.4436 24.0828 25.6211 24.1415 25.7395 24.1415C26.0353 24.4937 26.2129 24.9634 26.5679 25.2569C26.8637 25.433 27.2188 25.433 27.5738 25.3743C27.3963 25.1982 27.1596 25.1395 26.9821 24.9634C26.6862 24.6698 26.4495 24.3176 26.2129 23.9654ZM25.3253 23.8479C25.3253 23.437 25.3253 22.9673 25.3845 22.5564C25.6211 22.5564 25.8578 22.5564 26.0945 22.7325C26.3904 22.9673 26.3904 23.3783 26.2129 23.6718C25.917 23.9066 25.6211 23.8479 25.3253 23.8479Z" fill="#F1F1F2"/>
<path fill-rule="evenodd" clip-rule="evenodd" d="M82.4852 24.9047C82.1302 24.0828 81.8343 23.2022 81.5385 22.3802C81.4201 22.3802 81.3018 22.3802 81.1834 22.3802C80.8876 23.2022 80.5917 24.0241 80.2367 24.846C80.1184 25.1395 79.8225 25.1395 79.5858 25.3156C80.0592 25.3743 80.5326 25.3156 81.0059 25.3156C80.8876 25.1395 80.7101 25.0808 80.5326 25.0221C80.5917 24.7285 80.7101 24.435 80.8284 24.1415C81.1243 24.1415 81.4201 24.1415 81.7752 24.1415C81.8935 24.435 82.0118 24.7285 82.071 25.0221C81.8935 25.0808 81.7752 25.1982 81.6568 25.3156C82.1302 25.3743 82.6627 25.3743 83.1361 25.3156C82.8994 25.1982 82.6036 25.1395 82.4852 24.9047ZM80.8876 23.9654C81.0059 23.6131 81.1243 23.2609 81.2426 22.9673C81.361 23.3196 81.4793 23.6131 81.5976 23.9654C81.361 23.9654 81.1243 23.9654 80.8876 23.9654Z" fill="#F1F1F2"/>
<path fill-rule="evenodd" clip-rule="evenodd" d="M76.1538 22.3803C75.858 22.439 75.503 22.2629 75.2071 22.4977C75.3846 22.5564 75.503 22.6151 75.6805 22.6738C75.7396 23.0848 75.6805 23.4957 75.7396 23.9067C75.7396 24.3176 75.7988 24.6699 75.6805 25.0808C75.503 25.1982 75.3846 25.2569 75.2071 25.3744C75.7396 25.4331 76.2722 25.4331 76.8047 25.3744C76.6864 25.1982 76.4497 25.1982 76.2722 25.0808C76.213 24.2589 76.2722 23.3783 76.2722 22.5564C76.5089 22.5564 76.8047 22.5564 77.0414 22.7325C77.3373 23.0261 77.3373 23.5544 77.1006 23.848C76.9231 24.0241 76.6272 23.9654 76.3905 24.0241C76.568 24.3176 76.9231 24.2002 77.1598 24.1415C77.7515 23.9654 77.9882 23.0848 77.574 22.6738C77.1006 22.2629 76.568 22.3803 76.1538 22.3803Z" fill="#F1F1F2"/>
<path fill-rule="evenodd" clip-rule="evenodd" d="M69.5265 29.6013C68.9348 29.8361 68.7573 30.7167 69.2898 31.1276C69.5857 31.3625 69.9407 31.1864 70.2957 31.1276C70.1774 31.3038 70.059 31.5386 69.8815 31.7147C69.6448 31.9495 69.2898 32.1257 69.0531 32.3605C69.6448 32.3605 70.1182 31.9495 70.4732 31.5386C70.8283 31.0689 70.9466 30.3644 70.6508 29.8948C70.4732 29.4838 69.9407 29.3664 69.5265 29.6013ZM70.3549 30.8928C70.1182 30.9515 69.7632 31.0102 69.5857 30.7754C69.2898 30.4232 69.4082 29.66 69.9407 29.7187C70.4141 29.8361 70.4732 30.4819 70.3549 30.8928Z" fill="#F1F1F2"/>
<path fill-rule="evenodd" clip-rule="evenodd" d="M64.7929 22.3214C64.2603 22.4388 63.7869 22.8497 63.6686 23.4368C63.5503 24.0239 63.6686 24.7284 64.142 25.1393C64.7929 25.609 65.7988 25.5503 66.3313 24.9632C66.8047 24.4348 66.8639 23.4955 66.5088 22.9084C66.1538 22.3801 65.4437 22.1453 64.7929 22.3214ZM66.213 24.4348C66.1538 24.7284 65.9763 25.0219 65.6804 25.1393C65.2662 25.3155 64.7337 25.1393 64.497 24.7284C64.142 24.2 64.0828 23.4368 64.3787 22.8497C64.4378 22.7323 64.5562 22.6149 64.7337 22.5562C65.1479 22.3801 65.6804 22.4975 65.9171 22.8497C66.2721 23.3194 66.3313 23.9065 66.213 24.4348Z" fill="#F1F1F2"/>
<path fill-rule="evenodd" clip-rule="evenodd" d="M86.9821 22.4978C87.1596 22.5565 87.3963 22.6152 87.633 22.6739C87.6922 23.3197 87.633 24.0242 87.6922 24.67C87.0413 23.9068 86.4496 23.1436 85.7987 22.3804C85.4436 22.3217 85.1478 22.3217 84.7928 22.3217C84.9111 22.4978 85.207 22.5565 85.3845 22.6739C85.3845 23.4958 85.3845 24.259 85.3253 25.0809C85.207 25.1396 85.0294 25.1396 84.9111 25.1983C84.9111 25.257 84.9111 25.3157 84.9111 25.3744C85.3253 25.3744 85.7395 25.3744 86.2129 25.3744C86.2129 25.3157 86.2129 25.257 86.2129 25.1983C86.0354 25.1396 85.7395 25.1396 85.7395 24.9048C85.6803 24.259 85.6803 23.6719 85.6803 23.0261C86.3312 23.7893 86.9229 24.5525 87.5738 25.3157C87.6922 25.3157 87.8105 25.3744 87.9289 25.3744C87.9289 24.4351 87.9288 23.4958 87.988 22.6152C88.1655 22.5565 88.4022 22.5565 88.4022 22.3217C87.8697 22.4391 87.3963 22.2629 86.9821 22.4978Z" fill="#F1F1F2"/>
<path fill-rule="evenodd" clip-rule="evenodd" d="M71.3608 29.836C71.0058 30.1883 71.0649 30.8928 71.4792 31.1863C71.775 31.3624 72.13 31.1863 72.4259 31.1276C72.2484 31.4211 72.0709 31.7147 71.775 31.8908C71.5975 32.0669 71.3016 32.1256 71.2425 32.3604C71.9525 32.1843 72.6626 31.656 72.8993 30.9515C73.0176 30.5405 72.9584 30.0121 72.6626 29.6599C72.2484 29.3664 71.6567 29.4838 71.3608 29.836ZM72.4259 30.834C72.13 31.0689 71.6567 30.9515 71.5383 30.6579C71.3608 30.3057 71.4791 29.7773 71.8934 29.7186C72.4259 29.7186 72.6034 30.4231 72.4259 30.834Z" fill="#F1F1F2"/>
<path fill-rule="evenodd" clip-rule="evenodd" d="M59.2307 31.8908C58.8756 32.0669 58.4614 32.0082 58.1656 31.7734C57.633 31.3624 57.5739 30.4818 57.8697 29.9534C58.1656 29.5425 58.7573 29.4838 59.2307 29.7186C59.349 29.8947 59.4082 30.1296 59.5857 30.3057C59.6449 30.0121 59.6449 29.7773 59.704 29.4838C59.1123 29.3664 58.4614 29.3077 57.8697 29.6012C56.923 30.0708 56.9821 31.7147 57.9881 32.0669C58.4023 32.243 58.9348 32.243 59.4082 32.1256C59.6449 31.9495 59.8224 31.656 59.7632 31.3624C59.5857 31.5385 59.4082 31.7147 59.2307 31.8908Z" fill="#F1F1F2"/>
<path fill-rule="evenodd" clip-rule="evenodd" d="M60.4733 25.1395C59.8816 25.3743 59.1715 24.9634 58.994 24.3763C58.8165 23.7892 58.8757 22.9673 59.4674 22.6151C59.8224 22.4389 60.2958 22.4389 60.6508 22.6738C60.8875 22.7912 60.71 23.2608 61.0059 23.2021C61.065 22.9673 61.065 22.6738 61.1242 22.3802C60.4733 22.2628 59.7041 22.1454 59.1124 22.4976C58.2248 22.9673 58.1065 24.3763 58.8165 25.0808C59.4082 25.5504 60.1775 25.5504 60.8875 25.3156C61.0059 25.0808 61.2425 24.7872 61.1834 24.4937C60.9467 24.7285 60.7692 25.0221 60.4733 25.1395Z" fill="#F1F1F2"/>
<path fill-rule="evenodd" clip-rule="evenodd" d="M37.6332 22.6738C37.6924 23.1434 37.6924 23.6131 37.6924 24.0828C37.6924 24.3763 37.6924 24.7285 37.4557 24.9634C37.219 25.2569 36.8048 25.2569 36.5089 25.1395C36.1539 25.0221 35.9172 24.6111 35.9172 24.2589C35.9172 23.7305 35.9172 23.2609 35.9172 22.7325C36.0355 22.5564 36.2131 22.5564 36.3906 22.4977C35.9764 22.3215 35.503 22.439 35.0296 22.3802C35.0296 22.439 35.0296 22.4977 35.0296 22.5564C35.148 22.6151 35.2663 22.6151 35.3847 22.6738C35.503 23.3783 35.3847 24.0828 35.503 24.846C35.6213 25.3156 36.0947 25.5505 36.5681 25.5505C37.0415 25.5505 37.6332 25.433 37.8107 24.9047C38.0474 24.2002 37.929 23.4957 37.9882 22.7912C38.1657 22.6738 38.2841 22.5564 38.4616 22.439C37.9882 22.439 37.574 22.439 37.1006 22.439C37.1598 22.5564 37.3965 22.5564 37.6332 22.6738Z" fill="#F1F1F2"/>
<path fill-rule="evenodd" clip-rule="evenodd" d="M91.4201 25.0809C91.3609 24.259 91.4201 23.4958 91.4201 22.6739C91.5384 22.5565 91.7751 22.4978 91.8935 22.4391C91.4201 22.2629 90.9467 22.3804 90.4734 22.3217C90.4734 22.3804 90.4734 22.4391 90.4734 22.4978C90.5917 22.5565 90.7692 22.5565 90.8876 22.6152C91.0059 23.0261 90.9467 23.3784 90.9467 23.7893C90.9467 24.2003 91.0059 24.6112 90.8876 25.0222C90.71 25.1396 90.5325 25.1983 90.4142 25.3157C90.9467 25.3157 91.4793 25.3744 91.9526 25.3157C91.8343 25.1983 91.6568 25.1396 91.4201 25.0809Z" fill="#F1F1F2"/>
<path fill-rule="evenodd" clip-rule="evenodd" d="M0 23.6133C0 23.7307 0 23.9068 0 24.0242C5.56213 24.0242 11.1834 24.0242 16.7456 24.0242C16.7456 23.9068 16.7456 23.7307 16.7456 23.6133C11.1834 23.6133 5.56213 23.6133 0 23.6133Z" fill="#F1F1F2"/>
<path fill-rule="evenodd" clip-rule="evenodd" d="M74.3786 31.8909C74.3195 31.069 74.3786 30.3058 74.3195 29.4839C74.0236 29.5426 73.7869 29.66 73.4911 29.7187C73.4911 29.9535 73.7277 29.8361 73.9053 29.9535C73.9053 30.5993 73.9644 31.2451 73.9053 31.9496C73.7869 32.0083 73.6094 32.067 73.4911 32.067C73.4911 32.1257 73.4911 32.1844 73.4911 32.2431C73.9644 32.1844 74.4378 32.2431 74.9112 32.2431C74.7928 31.9496 74.5561 31.9496 74.3786 31.8909Z" fill="#F1F1F2"/>
<path fill-rule="evenodd" clip-rule="evenodd" d="M119.822 23.6133C114.26 23.6133 108.757 23.6133 103.195 23.6133C103.195 23.7307 103.195 23.9068 103.195 24.0242C108.817 24.0242 114.379 24.0242 120 24.0242C119.941 23.9068 120.059 23.6133 119.822 23.6133Z" fill="#F1F1F2"/>
<path fill-rule="evenodd" clip-rule="evenodd" d="M68.1065 31.8909C68.0474 31.069 68.1065 30.3058 68.1065 29.4839C67.8699 29.6013 67.574 29.66 67.3373 29.7187C67.1598 29.9535 67.574 29.8361 67.6923 29.8948C67.6923 30.5406 67.6923 31.2451 67.6923 31.8909C67.5148 31.9496 67.3965 31.9496 67.219 32.0083C67.219 32.067 67.219 32.1257 67.219 32.1844C67.6923 32.1257 68.1657 32.1844 68.6391 32.1844C68.4616 32.0083 68.2841 31.9496 68.1065 31.8909Z" fill="#F1F1F2"/>
<path fill-rule="evenodd" clip-rule="evenodd" d="M54.0829 29.4837C53.9054 29.6599 54.3788 29.6599 54.4971 29.7186C54.5563 30.3056 54.4971 30.8927 54.4971 31.4798C53.9646 30.8927 53.4912 30.3056 53.0178 29.6599C52.7812 29.3076 52.3078 29.3663 51.9528 29.4837C52.1303 29.6012 52.367 29.6012 52.4853 29.7186C52.5445 30.4231 52.4853 31.0688 52.4261 31.7733C52.2486 31.832 52.0711 31.9495 51.9528 32.0082C52.367 32.0669 52.8403 32.0669 53.3137 32.0669C53.1362 31.9495 52.9587 31.832 52.7812 31.7733C52.722 31.1863 52.722 30.5992 52.7812 29.9534C53.3137 30.5992 53.8462 31.245 54.3196 31.8907C54.3788 32.0669 54.6155 32.0082 54.7338 32.0669C54.7338 31.245 54.7338 30.4231 54.793 29.6012C54.9113 29.5424 55.0889 29.425 55.2072 29.3076C54.8522 29.4837 54.4971 29.425 54.0829 29.4837Z" fill="#F1F1F2"/>
</svg>
