<svg width="90" height="74" viewBox="0 0 90 74" fill="none" xmlns="http://www.w3.org/2000/svg">
<g clip-path="url(#clip0_1191_1380)">
<path d="M65.4498 46.4268C65.0818 44.7481 64.4509 43.2267 63.0841 42.1251C61.9276 41.1808 60.6133 40.9185 59.1414 41.3382C58.1951 41.6005 57.4591 42.1251 56.8809 42.912C56.7757 43.0694 56.618 43.1743 56.4603 43.3841C56.4603 42.5448 56.4603 41.8628 56.4603 41.1808C56.4603 40.4988 56.3552 40.3939 55.6717 40.3939C54.2523 40.3939 52.833 40.3939 51.4136 40.3939C50.7827 40.3939 50.6776 40.4988 50.6776 41.1808C50.6776 41.8628 50.6776 42.5972 50.6776 43.2792C50.625 43.2792 50.625 43.2792 50.5724 43.3317C50.4673 43.1743 50.3622 43.0169 50.2044 42.8595C48.2594 40.5513 45.2629 40.7087 43.2652 42.7021C42.3189 43.6989 41.8458 44.9579 41.5304 46.2694C41.215 47.6858 41.215 49.1547 41.3727 50.5711C41.5829 52.04 42.0035 53.4039 42.8972 54.6105C44.1589 56.3416 46.1565 56.9712 48.1542 56.2892C48.9953 55.9744 49.6262 55.4498 50.2044 54.7679C50.257 54.7154 50.3622 54.558 50.4673 54.6105C50.5724 54.6629 50.5199 55.1351 50.5199 55.1875C50.5199 56.9712 50.625 58.3876 49.889 60.0663C49.7313 60.4335 49.8365 60.8007 50.0467 61.1155C50.3096 61.5351 50.7301 61.7974 51.2033 61.9548C51.7816 62.1122 52.3598 62.1122 52.9907 62.0073C54.9883 61.7974 56.4603 60.0663 56.4077 58.0203C56.4077 57.2335 56.4077 56.499 56.4077 55.7121C56.4077 55.24 56.4077 54.8203 56.4077 54.2433C56.5654 54.4006 56.618 54.5056 56.6706 54.558C57.6168 55.817 58.8259 56.6039 60.5082 56.499C61.7699 56.4466 62.8213 55.922 63.6624 55.0302C64.9766 53.5613 65.5024 51.7777 65.6601 49.8891C65.7126 48.6825 65.6601 47.5809 65.4498 46.4268ZM50.3622 51.2006C50.3096 51.4104 50.2044 51.5678 50.0993 51.7252C49.5736 52.617 48.3645 52.617 47.8388 51.7777C47.4708 51.2006 47.3657 50.5711 47.3131 49.9416C47.2605 49.5744 47.2605 49.1547 47.2605 48.735C47.2605 47.9481 47.3131 47.1612 47.6285 46.3743C47.7862 45.9546 47.9965 45.5874 48.4171 45.3776C48.9953 45.0628 49.6787 45.2202 50.0467 45.7448C50.4673 46.2694 50.5724 46.9514 50.625 47.5809C50.6776 48.7875 50.7302 49.994 50.3622 51.2006ZM59.4042 51.0957C59.3516 51.358 59.2465 51.5678 59.0888 51.7777C58.5631 52.6695 57.2488 52.6695 56.8283 51.7252C56.5654 51.0957 56.3552 50.4137 56.3026 49.6793C56.1974 48.6825 56.3552 47.4235 56.5129 46.7415C56.618 46.3743 56.8283 45.9546 57.0386 45.6399C57.5643 44.9579 58.5631 45.0104 58.9837 45.7448C59.2465 46.2169 59.5094 46.794 59.6145 47.3711C59.8248 48.5776 59.8248 49.8367 59.4042 51.0957Z" fill="#F1F1F2"/>
<path d="M7.30724 35.043C6.72897 34.2037 6.83411 33.2069 7.67523 32.6299C8.04322 32.3676 8.46378 32.2626 8.83177 32.0528C9.09462 31.9479 9.19977 32.0528 9.19977 32.3151C9.19977 32.42 9.19977 32.5774 9.19977 32.6823C9.19977 33.9938 9.19977 35.3578 9.19977 36.6693C9.19977 37.4562 9.41004 37.666 10.146 37.666C11.4077 37.666 12.6694 37.666 13.9311 37.666C14.6145 37.666 14.8248 37.4562 14.8248 36.8266C14.8248 36.0397 14.8248 35.2529 14.8248 34.5184C14.8248 33.7315 14.8248 32.9446 14.8248 32.1577C14.8248 32.0004 14.7722 31.6331 14.9825 31.6331C15.1402 31.6331 15.2453 32.2626 15.2453 32.3151C15.403 33.0495 15.4556 33.784 15.6659 34.466C16.1916 36.4594 17.4007 37.7185 19.5561 37.9808C21.2383 38.1906 22.7103 37.7185 23.8142 36.407C24.1822 35.9873 24.1297 35.6725 23.7091 35.3053C23.1834 34.8332 22.6577 34.361 22.0794 33.9414C21.028 33.0495 20.2395 32.0004 19.6612 30.7938C19.4509 30.4266 19.5035 30.3741 19.8715 30.2167C20.6075 29.8495 21.2909 29.3774 21.9217 28.8003C22.9206 27.8036 23.0783 26.3347 22.5 25.0757C21.6063 23.0822 19.0304 22.2429 16.9801 23.6593C16.7173 23.8691 16.507 24.1314 16.2967 24.3937C16.0339 24.7609 16.0339 25.1281 16.3493 25.4954C16.5596 25.7577 16.7173 26.02 16.875 26.2823C17.0853 26.7019 17.1378 27.1741 16.9276 27.6462C16.5596 28.3806 15.9287 28.7479 15.1402 28.9577C14.9299 29.0102 14.7722 28.9052 14.7722 28.6954C14.7722 28.538 14.7722 28.3806 14.7722 28.2757C14.7722 26.9642 14.7722 25.6527 14.7722 24.3412C14.7722 23.6068 14.5619 23.397 13.8259 23.397C12.5642 23.397 11.3026 23.397 10.0935 23.397C9.35748 23.397 9.14719 23.6068 9.14719 24.3412C9.14719 25.2855 9.14719 26.2298 9.14719 27.1741C9.14719 27.856 9.14719 28.538 9.14719 29.22C9.14719 29.3249 9.04206 29.4298 8.93691 29.5347C8.88434 29.4298 8.7792 29.3249 8.72663 29.22C8.62149 28.4856 8.51635 27.7511 8.35864 27.0167C7.93808 25.1806 7.04439 23.7117 5.04673 23.2396C3.94276 22.9773 2.83878 23.0298 1.78738 23.4494C1.10397 23.7642 0.47313 24.1839 0.0525698 24.8658C-0.157711 25.1806 -0.157711 25.4429 0.15771 25.7052C0.578271 26.0724 1.0514 26.4396 1.47196 26.8068C2.57593 27.8036 3.57477 28.9052 4.20561 30.2692C4.41589 30.6889 4.36332 30.7413 3.99533 30.9512C3.46963 31.2659 2.94392 31.5807 2.41822 31.9479C0.525701 33.3118 0.841121 35.7774 1.99766 37.0889C2.83878 37.9807 3.89019 38.2431 5.04673 38.1906C6.04556 38.1381 6.83411 37.7185 7.46495 36.9316C7.83294 36.4594 7.83294 36.1447 7.46495 35.6201C7.51752 35.3053 7.41238 35.2004 7.30724 35.043Z" fill="#F1F1F2"/>
<path d="M45.2628 37.2988C47.2605 38.348 49.3107 38.4005 51.361 37.666C52.9906 37.089 54.1997 36.0398 54.9357 34.466C55.514 33.207 55.6191 31.9479 55.3563 30.584C55.0934 28.9577 54.1997 27.6463 52.7278 26.9118C51.9918 26.5446 51.2033 26.3348 50.4673 26.0725C50.8353 25.9151 51.2033 25.7052 51.5712 25.4954C52.5175 24.9708 53.3586 24.3413 53.9369 23.397C54.8306 21.9282 54.8306 20.4068 53.9369 18.938C52.8329 17.0494 50.625 16.1576 48.417 16.6822C46.4719 17.1019 44.9474 18.2035 43.7383 19.7773C42.424 21.5085 41.7932 23.5544 41.3726 25.6528C41.1098 26.9643 41.1624 28.3282 41.1624 29.6922C41.1624 31.3709 41.5304 32.9971 42.3715 34.466C43.1075 35.6726 44.0537 36.6168 45.2628 37.2988ZM47.5759 23.4495C47.7336 22.5577 47.8913 21.7183 48.3119 20.9314C48.6799 20.197 49.3107 20.197 49.7839 20.3544C50.0467 20.4593 50.257 20.8265 50.2044 21.2462C50.1519 21.456 50.0467 21.8232 49.8364 22.0855C49.3107 22.7675 48.6273 23.2921 47.8913 23.6593C47.6811 23.7118 47.5233 23.8167 47.5759 23.4495ZM48.1542 29.1676C49.153 29.2725 49.9416 29.9545 50.1519 30.9512C50.3621 31.843 50.3621 32.7348 49.9416 33.5742C49.7839 33.8889 49.6262 34.1512 49.4159 34.3611C48.9953 34.7808 48.1542 34.8332 47.6811 34.1512C47.2079 33.5217 47.1028 32.7348 46.9976 32.0004C46.8925 31.4233 46.8925 30.8463 46.8925 30.4791C46.8399 29.2725 47.1028 29.0102 48.1542 29.1676Z" fill="#F1F1F2"/>
<path d="M25.9696 22.8723C25.2862 23.0297 24.7079 23.3969 24.4451 24.0789C24.3399 24.2888 24.3399 24.656 24.3925 24.8658C24.9182 26.1773 25.0759 27.5413 25.0759 28.9052C25.0759 30.479 25.0759 32.0003 25.0759 33.5741C25.0759 34.5708 25.3388 35.5151 25.8645 36.3545C26.7056 37.7709 28.1776 38.4529 29.8072 38.1381C31.2792 37.8758 32.3306 36.984 33.1191 35.8299C33.2243 35.725 33.3294 35.62 33.4346 35.4627C33.4871 35.5676 33.5923 35.6725 33.6448 35.8299C34.3283 37.4561 35.9054 38.5053 37.903 38.1906C39.007 38.0332 39.8481 37.5086 40.479 36.5643C40.8469 36.0397 40.8469 35.8299 40.2687 35.5151C39.743 35.2004 39.4276 34.7282 39.3224 34.0987C39.2173 33.3643 39.1121 32.6823 39.1121 31.9479C39.1121 31.056 39.1647 30.1642 39.2173 29.22C39.2698 27.5937 39.3224 25.915 39.3224 24.2888C39.3224 23.5019 39.1121 23.292 38.3236 23.292C37.5876 23.292 36.8516 23.292 36.1156 23.292C35.4848 23.292 34.854 23.292 34.2231 23.292C33.5397 23.3445 33.3294 23.5543 33.2769 24.2363C33.2769 24.3937 33.2769 24.5511 33.2769 24.656C33.2769 25.7576 33.2769 26.8068 33.2769 27.9085C33.2769 29.0626 33.2769 30.1642 33.2769 31.3183C33.2769 32.0003 33.0666 32.6298 32.7512 33.2594C32.5934 33.5216 32.3832 33.7315 32.1203 33.8889C31.7523 34.0987 31.0163 33.8364 31.0163 32.6298C30.9638 30.8462 31.0163 29.0101 31.0163 27.2265C31.0163 26.7544 30.9638 26.2298 30.8586 25.7576C30.5432 24.4986 29.7547 23.6068 28.5981 23.1346C27.7044 22.7674 26.8633 22.715 25.9696 22.8723Z" fill="#F1F1F2"/>
<path d="M89.7372 35.5151C89.0012 35.0955 88.6858 34.4135 88.5806 33.6791C88.4229 32.7872 88.4229 31.9479 88.4755 31.0561C88.5281 28.7479 88.5806 26.4396 88.6332 24.1314C88.6332 23.5544 88.4229 23.2921 87.8446 23.2921C86.4252 23.2921 85.0058 23.2921 83.5339 23.2921C82.8505 23.2921 82.6402 23.5544 82.6402 24.2363C82.6402 25.3904 82.6402 26.4921 82.6402 27.6462C82.6402 27.6462 82.5876 30.479 82.5351 31.8954C82.4825 32.6299 82.2196 33.2594 81.6414 33.7315C81.1682 34.1512 80.6951 34.0463 80.4848 33.4168C80.3797 33.102 80.2745 32.7348 80.2745 32.3676C80.2745 30.5839 80.2745 28.8528 80.2745 27.0691C80.2745 26.6495 80.222 26.2298 80.1694 25.8101C79.9066 24.4462 79.0654 23.5019 77.7512 22.9773C77.0678 22.715 76.3844 22.6625 75.7009 22.7675C75.1227 22.8199 74.597 22.9773 74.1764 23.3445C73.7559 23.7642 73.493 24.2888 73.8084 24.9183C73.9661 25.2855 74.1238 25.7052 74.1764 26.1249C74.3341 27.2265 74.4393 28.3282 74.4918 29.4298C74.5444 30.9512 74.4918 32.42 74.4918 33.9414C74.5444 35.2528 75.0175 36.3545 75.9638 37.1939C77.278 38.4004 78.9077 38.4529 80.4848 37.6135C81.3785 37.1414 82.5876 35.725 82.7979 35.3578C82.8505 35.4627 82.9031 35.5676 82.9556 35.6725C83.8493 38.0332 86.5304 38.925 88.7383 37.6135C89.2115 37.3512 89.5795 36.984 89.8949 36.4594C90.0526 36.0397 90.0526 35.6725 89.7372 35.5151Z" fill="#F1F1F2"/>
<path d="M24.7605 54.8203C24.2874 54.5055 23.8143 54.1383 23.4463 53.7186C22.132 52.4072 21.2909 50.7284 20.5549 49.0497C20.4498 48.7874 20.5023 48.6301 20.7652 48.5251C21.0806 48.3153 21.4486 48.1055 21.764 47.8432C23.0783 46.8464 23.6566 45.5874 23.3411 43.9612C23.1834 43.0169 22.7103 42.2824 21.9217 41.7578C20.9755 41.1808 19.9766 40.9185 18.8727 41.1808C18.1367 41.3906 17.5059 41.7578 17.0327 42.3349C16.6647 42.807 16.6647 43.1743 17.0327 43.6464C17.243 43.9087 17.4007 44.171 17.5584 44.4857C17.979 45.2202 17.8213 46.0595 17.1904 46.5841C16.8224 46.8989 16.3493 47.1087 15.8762 47.3186C15.6659 47.4235 15.5082 47.371 15.4556 47.0563C15.403 46.3743 15.403 45.7448 15.3505 45.0628C15.1402 41.8628 12.722 40.3939 9.72548 41.1808C9.67291 41.1808 9.56777 41.2333 9.5152 41.2333C8.67408 41.6005 8.4638 42.3349 8.93693 43.0693C9.14721 43.4366 9.30492 43.8562 9.35749 44.2759C9.77805 46.8989 9.67291 52.9317 9.67291 54.4006C9.67291 55.2924 9.98833 55.7121 10.8295 55.7121C11.986 55.7121 13.1425 55.7121 14.2991 55.7121C15.1402 55.7121 15.4556 55.4498 15.4556 54.558C15.4556 53.876 15.4556 53.194 15.4556 52.5121C15.4556 51.7776 15.4556 51.0432 15.4556 50.3088C15.4556 50.2038 15.4556 49.9415 15.6133 49.9415C15.771 49.9415 16.3493 52.6694 16.7699 53.6662C17.611 55.6072 18.9252 56.9711 21.1332 57.2859C22.6052 57.4957 23.9194 57.181 24.9182 56.0269C25.4439 55.5547 25.3914 55.24 24.7605 54.8203Z" fill="#F1F1F2"/>
<path d="M72.7044 30.4791C72.7044 29.4824 72.5467 28.5381 72.1787 27.5414C71.3902 25.6004 70.0759 24.184 68.1308 23.4495C66.3435 22.7151 64.5035 22.6102 62.611 23.1348C59.1939 24.1315 56.9334 27.0168 56.8283 30.5316C56.7757 31.948 57.1963 33.2595 57.9322 34.4136C58.7734 35.7251 59.8773 36.7218 61.2967 37.2989C62.7687 37.9284 64.3458 38.1907 65.9755 37.9808C67.8154 37.771 69.3925 37.0366 70.6542 35.7251C71.9685 34.3087 72.6519 32.6299 72.7044 30.4791ZM66.8166 32.4201C66.7114 32.9447 66.4486 33.4693 66.2383 33.889C65.6075 35.0431 63.9778 34.8857 63.3995 33.7841C62.979 32.9972 62.7687 32.1578 62.7161 31.266C62.611 30.1119 62.7161 29.0102 63.0841 27.9086C63.1893 27.5414 63.3995 27.2266 63.6098 26.9118C64.2407 25.9676 65.6075 26.02 66.2383 26.9643C66.764 27.7512 66.9743 28.5906 67.0269 29.5348C67.0794 29.8496 67.0794 30.007 67.0794 30.584C66.9743 31.2135 66.9217 31.7906 66.8166 32.4201Z" fill="#F1F1F2"/>
<path d="M39.6904 45.8497C38.8493 43.8038 37.3773 42.3874 35.222 41.6529C34.1706 41.2857 33.1717 41.1808 32.0678 41.1808C29.965 41.2332 28.125 42.0201 26.653 43.489C25.1285 44.9579 24.34 46.8464 24.3925 48.9448C24.34 50.8334 24.9708 52.4071 26.1799 53.7711C27.9673 55.7646 30.2804 56.6564 32.9615 56.4465C34.2231 56.3416 35.3797 56.0269 36.4836 55.3973C38.1133 54.4531 39.2699 53.1416 39.9007 51.358C40.5315 49.4169 40.4264 47.6333 39.6904 45.8497ZM34.3283 50.7809C34.2231 51.4104 33.9603 51.935 33.5923 52.4596C32.9615 53.2465 31.6472 53.194 31.0689 52.3022C30.7009 51.7776 30.4907 51.1481 30.3329 50.5186C30.1752 49.994 30.1752 49.4169 30.1752 48.8399C30.1752 47.7907 30.3855 46.8464 30.7009 45.9022C30.8586 45.43 31.1215 45.0628 31.4895 44.8005C32.3832 44.2234 33.3294 44.4857 33.8551 45.43C34.2231 46.112 34.3808 46.8464 34.486 47.5809C34.5911 48.6825 34.5386 49.7317 34.3283 50.7809Z" fill="#F1F1F2"/>
<path d="M73.0199 50.5186C73.9661 50.6235 74.9124 50.6759 75.8586 50.6235C77.1203 50.5186 78.3294 50.2563 79.3808 49.5743C80.9054 48.5776 81.5888 46.8464 81.0631 45.0628C80.5899 43.4365 79.4334 42.3873 77.9089 41.7578C76.3843 41.1283 74.8072 40.9709 73.1776 41.2332C71.7582 41.4955 70.4439 41.9677 69.34 42.9119C67.5 44.4857 66.5537 46.4792 66.6063 48.8923C66.6063 49.312 66.6063 49.6792 66.6589 50.0989C67.0269 51.9874 67.9731 53.5612 69.4451 54.8203C70.6542 55.817 72.021 56.3416 73.5456 56.499C75.2278 56.6563 76.8049 56.2891 78.1717 55.3449C79.3808 54.558 80.2745 53.5612 80.9054 52.2497C81.0105 51.9874 81.0631 51.6202 80.8528 51.4628C80.6425 51.3055 80.3797 51.4628 80.1694 51.5153C79.3808 51.8301 78.5397 52.1448 77.7512 52.4071C76.8575 52.6694 75.9638 52.6694 75.0701 52.4596C74.0713 52.2497 73.3879 51.7251 72.8096 50.8858C72.757 50.8333 72.7044 50.6759 72.757 50.571C72.8621 50.4661 72.9673 50.5186 73.0199 50.5186ZM72.8096 47.7382C72.5993 47.7382 72.4942 47.6333 72.4942 47.371C72.5993 46.4267 72.8096 45.5874 73.493 44.9054C73.861 44.5382 74.2815 44.4333 74.7547 44.4857C75.3855 44.5382 75.8586 44.9578 75.7009 46.112C75.6484 46.5841 75.3855 47.0038 74.965 47.2661C74.4393 47.5808 73.7558 47.7382 73.125 47.7382C73.0199 47.7382 72.9147 47.7382 72.8096 47.7382Z" fill="#F1F1F2"/>
<path d="M77.5935 21.4035C77.9614 21.7182 78.382 22.033 78.8026 22.1904C80.0117 22.6101 81.2734 22.5576 82.535 22.1379C84.1121 21.6133 84.9007 20.4592 85.0584 18.8854C85.111 18.4658 85.0058 18.0461 84.743 17.6264C84.5853 17.3641 84.375 17.3116 84.1121 17.469C83.9019 17.5739 83.6916 17.6789 83.4813 17.8362C82.3248 18.5707 81.2208 19.0953 79.486 18.9379C79.118 18.8854 78.5923 18.9379 78.0666 19.0953C77.0152 19.41 76.7523 20.6166 77.5935 21.4035Z" fill="#F1F1F2"/>
<path d="M9.83061 9.39026L11.5129 12.2231L11.9334 11.9608L10.3037 9.12796L11.3551 8.5509L11.0923 8.13123L8.56893 9.60009L8.83178 9.96731L9.83061 9.39026Z" fill="#F1F1F2"/>
<path d="M14.8248 10.387L14.0888 8.86566L15.8236 8.07876L16.5596 9.60009L17.0327 9.39025L15.4556 6.03284L14.9299 6.24268L15.6133 7.65909L13.9311 8.44598L13.2477 7.02957L12.7745 7.29187L14.3516 10.6493L14.8248 10.387Z" fill="#F1F1F2"/>
<path d="M21.1332 7.76409L20.9755 7.29196L19.1881 8.02639L18.715 6.87228L20.3972 6.24276L20.2395 5.82309L18.5572 6.4526L18.1893 5.40341L19.9241 4.72143L19.7664 4.30176L17.5058 5.14111L18.8727 8.60345L21.1332 7.76409Z" fill="#F1F1F2"/>
<path d="M27.2839 5.92797L27.1788 5.45584L25.5491 5.87551L24.708 2.7804L24.2348 2.88531L25.1811 6.50503L27.2839 5.92797Z" fill="#F1F1F2"/>
<path d="M28.563 1.82696L28.0495 1.93933L28.849 5.57755L29.3625 5.46518L28.563 1.82696Z" fill="#F1F1F2"/>
<path d="M32.8037 4.77386L33.6449 0.891846L33.0666 0.996765L32.4883 4.1968H32.4358L30.8587 1.36398L30.2804 1.4689L32.3306 4.87878L32.8037 4.77386Z" fill="#F1F1F2"/>
<path d="M38.2185 4.09185L38.1659 3.61971L36.2734 3.82955L36.1157 2.62298L37.8505 2.41314L37.7979 1.99347L36.0631 2.15085L35.958 1.04919L37.7979 0.891814L37.7453 0.419678L35.3797 0.681976L35.8002 4.35415L38.2185 4.09185Z" fill="#F1F1F2"/>
<path d="M44.2114 3.88201C44.8423 3.88201 45.3154 3.61971 45.6308 3.20004L45.2103 2.93774C45 3.2525 44.632 3.46233 44.2114 3.46233C43.7909 3.46233 43.4755 3.35742 43.2126 3.04266C42.9498 2.78036 42.792 2.41314 42.792 1.99347C42.792 1.57379 42.8972 1.20657 43.16 0.944273C43.4229 0.681975 43.7383 0.524596 44.1589 0.472137C44.3691 0.472137 44.5269 0.524596 44.6846 0.577056C44.8423 0.629515 45 0.734435 45.1051 0.891814L45.5257 0.577056C45.368 0.419677 45.2103 0.262298 44.9474 0.157379C44.6846 0.0524596 44.4743 0 44.2114 0C43.6332 0 43.16 0.209838 42.792 0.577056C42.4241 0.944273 42.2663 1.41641 42.2663 1.99347C42.2663 2.57052 42.4766 3.04266 42.8446 3.40987C43.16 3.72463 43.6332 3.93447 44.2114 3.88201Z" fill="#F1F1F2"/>
<path d="M48.9953 3.98694C49.5736 4.0394 50.0467 3.82956 50.4147 3.5148C50.7827 3.14759 50.993 2.72791 51.0456 2.15085C51.0981 1.5738 50.8878 1.10166 50.5724 0.734444C50.2044 0.367227 49.7313 0.157389 49.2056 0.104929C48.6273 0.0524693 48.1542 0.209848 47.7862 0.577066C47.4182 0.944283 47.2079 1.36396 47.1554 1.94102C47.1028 2.51807 47.3131 2.99021 47.6285 3.35743C47.9439 3.72464 48.4171 3.98694 48.9953 3.98694ZM48.1016 0.944283C48.3645 0.681985 48.7325 0.524606 49.153 0.577066C49.5736 0.577066 49.889 0.734444 50.1519 1.0492C50.4147 1.36396 50.5199 1.73118 50.4673 2.15085C50.4673 2.57053 50.3096 2.93775 50.0467 3.20005C49.7839 3.46234 49.4159 3.61972 48.9953 3.56726C48.5748 3.56726 48.2593 3.40989 47.9965 3.09513C47.7336 2.78037 47.6285 2.41315 47.6811 1.99348C47.6811 1.5738 47.8388 1.20658 48.1016 0.944283Z" fill="#F1F1F2"/>
<path d="M53.4638 2.57055L55.146 2.78039L55.1986 2.30825L53.5163 2.15088L53.6215 0.996764L55.4614 1.2066V0.734466L53.2009 0.472168L52.7804 4.14434L53.2535 4.24926L53.4638 2.57055Z" fill="#F1F1F2"/>
<path d="M57.6168 3.14755L59.2465 3.40985L59.3516 2.99017L57.6694 2.67541L57.8797 1.57376L59.6671 1.83606L59.7196 1.41638L57.4591 0.996704L56.8283 4.66888L57.3014 4.7738L57.6168 3.14755Z" fill="#F1F1F2"/>
<path d="M63.347 5.5082L61.4544 5.08853L61.7173 3.88195L63.4521 4.24917L63.5572 3.82949L61.8224 3.46228L62.0853 2.36063L63.8727 2.7803L63.9778 2.36063L61.6647 1.78357L60.8236 5.40328L63.2418 5.98034L63.347 5.5082Z" fill="#F1F1F2"/>
<path d="M67.4474 6.71481L65.6075 6.13775L65.9229 4.93118L67.6052 5.45578L67.7629 5.0361L66.0806 4.5115L66.396 3.46231L68.1834 3.98691L68.2886 3.56723L66.028 2.88525L64.9766 6.45251L67.3423 7.13448L67.4474 6.71481Z" fill="#F1F1F2"/>
<path d="M72.9147 9.33774C73.493 9.60004 74.0187 9.54758 74.4918 9.28528L74.229 8.8656C73.9136 9.07544 73.5456 9.07544 73.125 8.91806C72.757 8.76068 72.4942 8.49839 72.3365 8.13117C72.2313 7.76395 72.2313 7.39673 72.389 6.97706C72.5467 6.60984 72.8096 6.29508 73.1776 6.1377C73.5456 5.98032 73.9136 5.98032 74.2816 6.1377C74.4393 6.19016 74.597 6.29508 74.7021 6.45246C74.8073 6.60984 74.9124 6.71476 74.9124 6.87214L75.4381 6.76722C75.3855 6.55738 75.2804 6.34754 75.0701 6.1377C74.8598 5.92786 74.6495 5.82294 74.4393 5.71803C73.9136 5.50819 73.3879 5.45573 72.9147 5.66557C72.4416 5.8754 72.0736 6.19016 71.8633 6.71476C71.653 7.23936 71.6005 7.76395 71.8108 8.23609C72.021 8.70823 72.389 9.1279 72.9147 9.33774Z" fill="#F1F1F2"/>
<path d="M76.5946 11.0689C76.91 11.2263 77.278 11.2788 77.5935 11.1739C77.9614 11.0689 78.1717 10.8591 78.382 10.4919C78.5923 10.1247 78.5923 9.80991 78.4871 9.49515C78.382 9.1804 78.1717 8.9181 77.8037 8.70826C77.4357 8.49842 77.1203 8.49842 76.8049 8.60334C76.4895 8.70826 76.2266 8.9181 76.0164 9.23286C75.8586 9.54761 75.8061 9.91483 75.9112 10.2296C76.0689 10.6493 76.2792 10.9116 76.5946 11.0689ZM76.4895 9.54761C76.5946 9.33778 76.7523 9.1804 76.9626 9.07548C77.1729 8.97056 77.3832 9.02302 77.646 9.12794C77.8563 9.23286 78.014 9.44269 78.0666 9.65253C78.1192 9.86237 78.0666 10.0722 77.9614 10.3345C77.8563 10.5443 77.6986 10.7017 77.4883 10.8066C77.278 10.9116 77.0678 10.8591 76.8049 10.7542C76.5946 10.6493 76.4369 10.4394 76.3843 10.2296C76.3318 9.96729 76.3843 9.75745 76.4895 9.54761Z" fill="#F1F1F2"/>
<path d="M79.5386 12.6427C79.6437 12.6952 79.6963 12.6952 79.8014 12.6952C79.9065 12.6952 79.9591 12.6427 80.0117 12.5378C80.0642 12.4329 80.0643 12.3804 80.0643 12.2755C80.0643 12.1706 80.0117 12.1181 79.9065 12.0656C79.8014 12.0132 79.7488 12.0132 79.6437 12.0132C79.5386 12.0132 79.486 12.0656 79.4334 12.1706C79.3808 12.223 79.3808 12.3279 79.3808 12.4329C79.3808 12.5378 79.4334 12.5902 79.5386 12.6427Z" fill="#F1F1F2"/>
<path d="M28.1776 71.5549L30.5958 72.0795L30.7009 71.6598L28.8084 71.2401L29.0713 70.0336L30.7535 70.4008L30.8587 69.9811L29.1764 69.6139L29.3867 68.5122L31.2267 68.8795L31.3318 68.4598L28.9661 67.9352L28.1776 71.5549Z" fill="#F1F1F2"/>
<path d="M33.5397 69.3517C33.6974 69.2468 33.8552 69.2468 34.0654 69.2992C34.2231 69.2992 34.3283 69.3517 34.486 69.4566C34.5911 69.5615 34.6963 69.614 34.7488 69.7714L35.1694 69.4566C35.0643 69.2992 34.9591 69.1943 34.7488 69.0894C34.5911 68.9845 34.3809 68.932 34.1706 68.8796C33.9603 68.8271 33.75 68.8271 33.5397 68.8796C33.3295 68.932 33.1717 69.0369 33.014 69.1419C32.8563 69.2992 32.7512 69.4566 32.7512 69.7189C32.7512 69.8763 32.7512 70.0337 32.7512 70.1386C32.8038 70.2435 32.8563 70.4009 32.9089 70.4533C32.9615 70.5058 33.0666 70.6107 33.1717 70.6632C33.2769 70.7156 33.382 70.7681 33.4872 70.873C33.5923 70.9255 33.6974 70.9779 33.75 71.0304C33.8026 71.0829 33.8552 71.0829 33.9603 71.1878C34.0654 71.2402 34.118 71.2927 34.118 71.3452C34.1706 71.3976 34.1706 71.4501 34.2231 71.555C34.2231 71.6075 34.2757 71.7124 34.2231 71.8173C34.1706 72.0271 34.118 72.1845 33.9077 72.237C33.75 72.3419 33.5397 72.3419 33.382 72.3419C33.2243 72.2894 33.0666 72.237 32.9089 72.1321C32.7512 72.0271 32.6986 71.9222 32.5935 71.7648L32.1203 72.0271C32.2255 72.237 32.3832 72.3944 32.5935 72.4993C32.8038 72.6042 33.014 72.7091 33.2769 72.7616C33.6449 72.814 33.9603 72.7616 34.2231 72.6042C34.486 72.4468 34.6437 72.1845 34.7488 71.8173C34.7488 71.6599 34.7488 71.555 34.7488 71.4501C34.6963 71.3452 34.6963 71.2402 34.6437 71.1353C34.5911 71.0304 34.5386 70.9779 34.4334 70.9255C34.3283 70.8206 34.2231 70.7681 34.1706 70.7681C34.118 70.7156 34.0129 70.6632 33.8552 70.6107C33.75 70.5583 33.6449 70.5058 33.5923 70.4533C33.5397 70.4009 33.4872 70.3484 33.382 70.296C33.3295 70.2435 33.2769 70.1386 33.2243 70.0861C33.2243 70.0337 33.1717 69.9288 33.2243 69.8238C33.3295 69.5615 33.382 69.4566 33.5397 69.3517Z" fill="#F1F1F2"/>
<path d="M36.4311 69.7713L37.5876 69.8762L37.2722 73.1287L37.7979 73.1812L38.1133 69.9287L39.3224 70.0336L39.375 69.5615L36.4836 69.2992L36.4311 69.7713Z" fill="#F1F1F2"/>
<path d="M40.479 72.709C40.3738 72.709 40.3213 72.709 40.2161 72.8139C40.1636 72.8664 40.111 72.9713 40.111 73.0762C40.111 73.1811 40.111 73.2336 40.2161 73.3385C40.2687 73.391 40.3738 73.4434 40.479 73.4434C40.5841 73.4434 40.6367 73.4434 40.7418 73.3385C40.7944 73.286 40.847 73.1811 40.847 73.0762C40.847 72.9713 40.847 72.9188 40.7418 72.8139C40.6367 72.7614 40.5841 72.709 40.479 72.709Z" fill="#F1F1F2"/>
<path d="M45.4206 73.0763L46.6297 71.8697C46.84 71.6599 46.9977 71.5025 47.0502 71.3451C47.1028 71.1877 47.208 70.9779 47.208 70.7681C47.208 70.4533 47.1028 70.191 46.84 69.9812C46.6297 69.8238 46.3143 69.7189 45.9988 69.7189C45.6834 69.7189 45.4206 69.8238 45.2103 69.9812C45 70.1385 44.8423 70.4009 44.8423 70.7156L45.368 70.8205C45.4206 70.6107 45.4731 70.4533 45.5783 70.3484C45.6834 70.2435 45.8411 70.191 46.0514 70.191C46.2617 70.191 46.4194 70.2435 46.5245 70.3484C46.6297 70.4533 46.7348 70.6107 46.7348 70.8205C46.7348 71.0828 46.5771 71.3451 46.3143 71.6074L44.8423 73.0763V73.5484H47.2605V73.0763H45.4206Z" fill="#F1F1F2"/>
<path d="M51.361 70.4533C51.2558 70.191 51.0981 69.9287 50.8878 69.7713C50.6776 69.614 50.4147 69.509 50.1519 69.5615C49.889 69.5615 49.6262 69.6664 49.4684 69.8763C49.3107 70.0861 49.153 70.2959 49.1005 70.6107C49.0479 70.9254 48.9953 71.2402 49.0479 71.6074C49.1005 72.1845 49.2056 72.6566 49.4684 72.9714C49.6787 73.3386 50.0467 73.496 50.4673 73.4435C50.8878 73.391 51.2033 73.2337 51.361 72.8664C51.5712 72.4992 51.6238 72.0271 51.5712 71.45C51.5187 71.0828 51.4661 70.7156 51.361 70.4533ZM51.0455 71.9746C51.0455 72.132 50.993 72.2894 50.993 72.4468C50.9404 72.6041 50.8878 72.7615 50.7827 72.8664C50.6776 72.9714 50.5724 73.0238 50.4147 73.0238C50.257 73.0238 50.1519 72.9714 50.0467 72.9189C49.9416 72.814 49.8364 72.7091 49.7839 72.5517C49.7313 72.3943 49.6787 72.2369 49.6262 72.0795C49.5736 71.9222 49.5736 71.7648 49.5736 71.555C49.5736 71.3976 49.5736 71.1877 49.5736 71.0304C49.5736 70.873 49.6262 70.7156 49.6787 70.5582C49.7313 70.4008 49.7839 70.2435 49.889 70.1385C49.9942 70.0336 50.0993 69.9812 50.257 69.9812C50.4147 69.9812 50.5199 70.0336 50.625 70.0861C50.7301 70.191 50.8353 70.2959 50.8878 70.4533C50.9404 70.6107 50.993 70.7681 51.0455 70.9254C51.0981 71.0828 51.0981 71.2402 51.0981 71.45C51.0455 71.6599 51.0455 71.8173 51.0455 71.9746Z" fill="#F1F1F2"/>
<path d="M55.4614 70.0336C55.3563 69.7713 55.1986 69.5615 54.9357 69.4041C54.7255 69.2467 54.4626 69.1943 54.1998 69.2467C53.9369 69.2992 53.6741 69.4041 53.5164 69.6139C53.3586 69.8238 53.2535 70.0861 53.2009 70.3484C53.1484 70.6631 53.1484 70.9779 53.2009 71.3451C53.2535 71.9222 53.4112 72.3943 53.6741 72.7091C53.9369 73.0238 54.2523 73.1812 54.6729 73.1287C55.0935 73.0763 55.3563 72.8664 55.5666 72.4992C55.7243 72.132 55.7769 71.6599 55.7243 71.0828C55.6717 70.6107 55.6192 70.2959 55.4614 70.0336ZM55.1986 72.0271C55.146 72.1845 55.0935 72.3419 55.0409 72.4468C54.9883 72.5517 54.8306 72.6042 54.6729 72.6566C54.5152 72.6566 54.41 72.6566 54.3049 72.5517C54.1998 72.4468 54.0946 72.3419 54.0421 72.1845C53.9895 72.0271 53.9369 71.8697 53.8843 71.7123C53.8318 71.555 53.8318 71.3976 53.7792 71.1877C53.7792 71.0304 53.7266 70.8205 53.7266 70.6631C53.7266 70.5058 53.7266 70.3484 53.7792 70.191C53.8318 70.0336 53.8843 69.8762 53.9369 69.7713C54.0421 69.6664 54.1472 69.6139 54.3049 69.5615C54.4626 69.5615 54.5678 69.5615 54.6729 69.6664C54.778 69.7713 54.8832 69.8762 54.9357 70.0336C54.9883 70.191 55.0409 70.3484 55.0935 70.5058C55.146 70.6631 55.146 70.8205 55.1986 71.0304C55.1986 71.1877 55.2512 71.3976 55.2512 71.555C55.2512 71.7123 55.1986 71.8697 55.1986 72.0271Z" fill="#F1F1F2"/>
<path d="M59.4042 70.1909C59.1413 70.0336 58.8259 69.9811 58.4579 70.0336C58.3002 70.086 58.1425 70.1385 57.9848 70.1909L57.8271 69.2467L59.3516 68.9844L59.2465 68.5647L57.2488 68.9319L57.5642 70.8729C57.7745 70.7155 58.0374 70.5582 58.3528 70.5057C58.6156 70.4532 58.8259 70.5057 58.9836 70.6106C59.1939 70.7155 59.2991 70.9254 59.3516 71.1877C59.4042 71.3975 59.3516 71.6074 59.2465 71.8172C59.1413 71.9746 58.9836 72.0795 58.7208 72.132C58.5631 72.1844 58.4054 72.132 58.2477 72.0795C58.0899 72.027 57.9848 71.9221 57.8797 71.7647L57.4591 72.027C57.6168 72.2369 57.7745 72.3943 57.9848 72.4992C58.1951 72.6041 58.4579 72.6041 58.7208 72.5516C59.0888 72.4992 59.3516 72.2893 59.5619 72.027C59.7722 71.7647 59.8248 71.45 59.7722 71.0303C59.8248 70.6106 59.667 70.3483 59.4042 70.1909Z" fill="#F1F1F2"/>
<path d="M65.0292 69.509C65.4937 69.509 65.8703 69.1332 65.8703 68.6697C65.8703 68.2061 65.4937 67.8303 65.0292 67.8303C64.5647 67.8303 64.1881 68.2061 64.1881 68.6697C64.1881 69.1332 64.5647 69.509 65.0292 69.509Z" fill="#F1F1F2"/>
<path d="M23.8142 69.509C24.2788 69.509 24.6554 69.1332 24.6554 68.6697C24.6554 68.2061 24.2788 67.8303 23.8142 67.8303C23.3497 67.8303 22.9731 68.2061 22.9731 68.6697C22.9731 69.1332 23.3497 69.509 23.8142 69.509Z" fill="#F1F1F2"/>
<path d="M84.3224 41.2857C84.4276 41.1808 84.4801 41.0759 84.4801 40.9185C84.4801 40.7086 84.4276 40.5513 84.2699 40.4988C84.1122 40.3939 83.9544 40.3414 83.7442 40.3414H83.0608V42.4398H83.3762V41.4955H83.6916L84.2173 42.4398H84.5853L84.007 41.4431C84.1122 41.4431 84.2173 41.3906 84.3224 41.2857ZM83.3236 41.2332V40.5513H83.6916C84.007 40.5513 84.1647 40.6562 84.1647 40.866C84.1647 41.0759 84.007 41.1808 83.6916 41.1808H83.3236V41.2332Z" fill="#F1F1F2"/>
<path d="M83.639 39.2397C82.4825 39.2397 81.5362 40.184 81.5362 41.3381C81.5362 42.4922 82.4825 43.4365 83.639 43.4365C84.7956 43.4365 85.7418 42.4922 85.7418 41.3381C85.7418 40.184 84.7956 39.2397 83.639 39.2397ZM83.639 42.9644C82.7453 42.9644 82.0619 42.2299 82.0619 41.3906C82.0619 40.5512 82.7979 39.8168 83.639 39.8168C84.5327 39.8168 85.2161 40.5512 85.2161 41.3906C85.2161 42.2299 84.5327 42.9644 83.639 42.9644Z" fill="#F1F1F2"/>
</g>
<defs>
<clipPath id="clip0_1191_1380">
<rect width="90" height="73.5484" fill="white"/>
</clipPath>
</defs>
</svg>
