<svg width="120" height="35" viewBox="0 0 120 35" fill="none" xmlns="http://www.w3.org/2000/svg">
<g clip-path="url(#clip0_1191_1498)">
<path d="M26.6799 17.3547H34.868V14.6573H26.6799V11.1081H35.4781V8.39685H23.3864V24.4116H35.7919V21.7142H26.6799V17.3547Z" fill="#F1F1F2"/>
<path d="M41.9665 8.52844H38.6729V24.4116H50.1546V21.7142H41.9665V8.52844Z" fill="#F1F1F2"/>
<path d="M55.6944 8.39685H52.4008V24.4116H55.6944V8.39685Z" fill="#F1F1F2"/>
<path d="M68.0329 8.63931C67.424 8.48003 66.1181 8.40039 64.1152 8.40039H58.8257V24.4151H62.1193V18.3728H64.2668C65.4176 18.4002 66.5685 18.3237 67.705 18.1443C68.3193 18.0047 68.8994 17.747 69.4117 17.386C69.9959 16.9764 70.4712 16.4348 70.7975 15.807C71.1843 15.0372 71.3721 14.1857 71.3441 13.3277C71.3937 12.2143 71.0608 11.1168 70.3991 10.2114C69.8171 9.43655 68.9818 8.88156 68.0329 8.63931ZM67.5604 14.6158C67.3078 14.9757 66.9482 15.2502 66.5307 15.4019C66.0934 15.5704 65.226 15.6546 63.9283 15.6546H62.1264V11.1082H63.7167C64.5083 11.087 65.3004 11.124 66.0864 11.219C66.5964 11.3014 67.0627 11.5517 67.4088 11.9288C67.7629 12.3264 67.9495 12.8414 67.9306 13.3693C67.9408 13.8123 67.8115 14.2476 67.5604 14.6158Z" fill="#F1F1F2"/>
<path d="M81.2495 8.12332C80.0426 8.09895 78.8431 8.31449 77.7232 8.75698C76.9251 9.09017 76.205 9.58041 75.6074 10.1974C74.9725 10.8352 74.4579 11.5785 74.0876 12.3928C73.5545 13.6979 73.3023 15.0974 73.347 16.5029C73.347 19.0422 74.0629 21.0436 75.4946 22.5071C76.9262 23.9707 78.8551 24.6967 81.2812 24.6852C83.6768 24.6852 85.5904 23.9545 87.022 22.4933C88.4537 21.0321 89.1696 19.0087 89.1696 16.4233C89.1696 13.8171 88.4478 11.781 87.0044 10.3152C85.561 8.84932 83.6427 8.1187 81.2495 8.12332ZM84.5148 20.53C84.1029 20.971 83.6021 21.3231 83.0442 21.564C82.4864 21.8049 81.8836 21.9293 81.2742 21.9293C80.6647 21.9293 80.062 21.8049 79.5041 21.564C78.9462 21.3231 78.4454 20.971 78.0335 20.53C77.1801 19.5951 76.7534 18.2204 76.7534 16.406C76.7534 14.5915 77.1684 13.2134 77.9982 12.2716C78.4231 11.8404 78.9318 11.4976 79.4943 11.2635C80.0568 11.0294 80.6615 10.9087 81.2724 10.9087C81.8833 10.9087 82.488 11.0294 83.0505 11.2635C83.613 11.4976 84.1218 11.8404 84.5466 12.2716C85.367 13.1742 85.7773 14.5431 85.7773 16.3783C85.7773 18.2135 85.3564 19.5974 84.5148 20.53Z" fill="#F1F1F2"/>
<path d="M102.562 18.6983C102.044 18.1685 101.451 17.7159 100.799 17.3547C102.231 17.1516 103.307 16.6576 104.026 15.8727C104.76 15.0519 105.146 13.9864 105.105 12.8949C105.123 12.0042 104.878 11.1276 104.4 10.3706C103.961 9.66446 103.292 9.12409 102.503 8.83664C101.713 8.54809 100.447 8.40381 98.7047 8.40381H91.765V24.4151H95.0585V17.7287H95.725C96.2836 17.7045 96.8426 17.7653 97.3823 17.9088C97.766 18.0476 98.1096 18.2757 98.3838 18.5736C99.0129 19.3212 99.5924 20.1076 100.119 20.9282L102.499 24.4116H106.438L104.446 21.2952C103.896 20.3773 103.266 19.5084 102.562 18.6983ZM97.4917 15.1698H95.055V11.1081H97.6257C98.961 11.1081 99.7614 11.1266 100.027 11.1635C100.502 11.2156 100.943 11.4316 101.272 11.773C101.578 12.1398 101.735 12.6047 101.713 13.0784C101.729 13.5031 101.612 13.9225 101.378 14.2799C101.158 14.6067 100.833 14.8508 100.454 14.9724C100.059 15.104 99.0714 15.1698 97.4917 15.1698Z" fill="#F1F1F2"/>
<path d="M107.041 8.39685V11.1081H111.879V24.4116H115.172V11.1081H120V8.39685H107.041Z" fill="#F1F1F2"/>
<path d="M6.94327 8.39685V24.4116H10.2368V17.4101H16.69V24.4116H19.9835V8.39685H16.69V14.7023H10.2368V8.39685H6.94327Z" fill="#F1F1F2"/>
<path d="M31.2184 32.0572C31.0374 32.5743 30.9045 32.9667 30.8199 33.2345C30.7447 33.0036 30.6271 32.6412 30.4673 32.1472L28.7041 26.9532H27.2054V34.2802H28.1575V28.0474L30.3262 34.2802H31.2184L33.3906 28.1375V34.2802H34.3427V26.9532H33.0062L31.2184 32.0572Z" fill="#F1F1F2"/>
<path d="M38.0135 28.8543C37.3963 28.837 36.794 29.0428 36.3209 29.4325C35.7638 29.9058 35.4852 30.6352 35.4852 31.6209C35.458 31.9958 35.5063 32.3722 35.6273 32.7286C35.7483 33.0851 35.9397 33.4147 36.1904 33.6985C36.4285 33.9376 36.7151 34.1249 37.0316 34.2484C37.348 34.3719 37.6874 34.4287 38.0276 34.4153C38.485 34.4194 38.9357 34.3073 39.3359 34.0898C39.7268 33.8818 40.045 33.5634 40.2492 33.1757C40.4822 32.6697 40.5897 32.1167 40.5631 31.5621C40.5847 31.202 40.5335 30.8413 40.4125 30.5008C40.2914 30.1602 40.1029 29.8466 39.8578 29.578C39.6196 29.3366 39.3322 29.1474 39.0144 29.0226C38.6966 28.8979 38.3555 28.8406 38.0135 28.8543ZM39.142 33.1584C39.0003 33.3184 38.8253 33.4467 38.6288 33.5346C38.4323 33.6225 38.2189 33.668 38.003 33.668C37.787 33.668 37.5736 33.6225 37.3771 33.5346C37.1806 33.4467 37.0056 33.3184 36.864 33.1584C36.5284 32.7192 36.3668 32.1753 36.4091 31.6279C36.3666 31.0815 36.5284 30.5386 36.864 30.1008C37.0077 29.9428 37.1842 29.8168 37.3816 29.7313C37.579 29.6458 37.7928 29.6028 38.0086 29.6051C38.2243 29.6074 38.4371 29.6549 38.6326 29.7446C38.8281 29.8343 39.0017 29.964 39.142 30.1251C39.4743 30.5512 39.6361 31.0821 39.5969 31.6175C39.637 32.1679 39.4757 32.7143 39.142 33.1584Z" fill="#F1F1F2"/>
<path d="M44.9286 31.4858C44.4855 31.3182 44.032 31.1782 43.571 31.0669C43.1219 30.9468 42.8516 30.8695 42.7599 30.8349C42.6226 30.7878 42.5008 30.7053 42.4073 30.5959C42.3336 30.5069 42.2938 30.3955 42.2944 30.2808C42.2969 30.1851 42.3229 30.0913 42.3702 30.0075C42.4175 29.9238 42.4846 29.8524 42.566 29.7995C42.8373 29.6395 43.1534 29.568 43.4687 29.5952C43.7638 29.5776 44.0561 29.6595 44.2974 29.8272C44.4958 29.9872 44.6224 30.2172 44.65 30.4678L45.5457 30.3466C45.5069 30.0513 45.3982 29.7691 45.2283 29.5225C45.0461 29.2964 44.8011 29.1269 44.5231 29.0343C44.1647 28.908 43.7859 28.8469 43.4052 28.8542C43.1369 28.8522 42.8696 28.8883 42.6118 28.9616C42.404 29.0161 42.2072 29.1051 42.03 29.2247C41.8419 29.3554 41.6873 29.5273 41.5786 29.7268C41.4687 29.9292 41.4118 30.1553 41.4129 30.3847C41.4089 30.6419 41.482 30.8945 41.6231 31.1112C41.7642 31.3279 41.967 31.4991 42.2063 31.6036C42.6628 31.7876 43.1348 31.9324 43.6168 32.0364C43.9411 32.0995 44.2562 32.2018 44.5548 32.3411C44.6393 32.3906 44.709 32.4613 44.7567 32.5458C44.8043 32.6303 44.8284 32.7258 44.8263 32.8224C44.8246 32.9375 44.796 33.0508 44.7428 33.1534C44.6896 33.256 44.6133 33.3453 44.5195 33.4145C44.2465 33.6037 43.9147 33.6931 43.5815 33.6673C43.232 33.689 42.8859 33.5884 42.6048 33.3834C42.3509 33.1732 42.1914 32.8735 42.1604 32.5489L41.2542 32.6874C41.3183 33.1849 41.5699 33.6408 41.9594 33.9651C42.4311 34.2815 42.9975 34.4328 43.5674 34.3945C43.9596 34.4005 44.3487 34.3262 44.7099 34.1763C45.0222 34.0582 45.2929 33.8537 45.4893 33.5877C45.663 33.3376 45.7564 33.042 45.7573 32.7393C45.7677 32.4659 45.6913 32.196 45.5386 31.9671C45.3869 31.7522 45.175 31.585 44.9286 31.4858Z" fill="#F1F1F2"/>
<path d="M49.9148 33.3452C49.668 33.5642 49.3445 33.6808 49.0121 33.6707C48.8048 33.6767 48.599 33.6362 48.4101 33.5522C48.2213 33.4682 48.0545 33.3429 47.9224 33.186C47.6033 32.7298 47.455 32.1792 47.5028 31.6278C47.4558 31.0787 47.6095 30.5312 47.9366 30.0834C48.0743 29.9239 48.2471 29.7971 48.442 29.7126C48.6368 29.628 48.8486 29.5879 49.0614 29.5952C49.3473 29.588 49.6258 29.6841 49.8443 29.8653C50.0795 30.0793 50.2379 30.3623 50.2957 30.6721L51.1878 30.537C51.1151 30.052 50.8643 29.6099 50.4825 29.2939C50.0613 28.9829 49.542 28.8272 49.0156 28.8542C48.5643 28.8508 48.1198 28.9617 47.725 29.1762C47.3274 29.3926 47.0157 29.7342 46.8399 30.1458C46.6373 30.6225 46.5388 31.1356 46.5507 31.652C46.5012 32.3931 46.7436 33.1245 47.2278 33.695C47.456 33.9333 47.7338 34.1207 48.0423 34.2443C48.3507 34.368 48.6827 34.4251 49.0156 34.4117C49.5623 34.4265 50.0951 34.2414 50.5108 33.8923C50.9317 33.5203 51.2011 33.011 51.2689 32.4588L50.3662 32.3445C50.3387 32.7195 50.1791 33.0733 49.9148 33.3452Z" fill="#F1F1F2"/>
<path d="M54.2592 28.8542C53.6335 28.8309 53.0213 29.037 52.5419 29.4325C51.9847 29.9057 51.7062 30.6352 51.7062 31.6209C51.679 31.9957 51.7272 32.3721 51.8483 32.7286C51.9693 33.085 52.1606 33.4146 52.4114 33.6984C52.6495 33.9375 52.9361 34.1248 53.2525 34.2483C53.569 34.3718 53.9084 34.4286 54.2486 34.4152C54.706 34.4193 55.1567 34.3072 55.5569 34.0897C55.9477 33.8818 56.2659 33.5633 56.4702 33.1756C56.7031 32.6696 56.8107 32.1166 56.784 31.562C56.8057 31.2019 56.7545 30.8412 56.6335 30.5007C56.5124 30.1602 56.3239 29.8465 56.0788 29.5779C55.8434 29.3396 55.56 29.1522 55.2467 29.0275C54.9334 28.9029 54.5971 28.8439 54.2592 28.8542ZM55.3947 33.1583C55.253 33.3183 55.078 33.4466 54.8815 33.5345C54.685 33.6224 54.4716 33.6679 54.2557 33.6679C54.0397 33.6679 53.8263 33.6224 53.6298 33.5345C53.4333 33.4466 53.2583 33.3183 53.1167 33.1583C52.7811 32.7191 52.6195 32.1752 52.6618 31.6278C52.6194 31.0814 52.7811 30.5386 53.1167 30.1008C53.2587 29.9418 53.4336 29.8145 53.6297 29.7272C53.8258 29.64 54.0386 29.5949 54.2539 29.5949C54.4692 29.5949 54.682 29.64 54.8781 29.7272C55.0743 29.8145 55.2492 29.9418 55.3911 30.1008C55.7235 30.5269 55.8853 31.0578 55.846 31.5932C55.8932 32.1513 55.7328 32.7073 55.3947 33.1583Z" fill="#F1F1F2"/>
<path d="M63.7414 28.9754L62.814 32.0502L62.5037 33.089L62.2321 32.0744L61.4211 28.9927H60.4796L59.6192 32.109C59.4452 32.7831 59.3523 33.149 59.3406 33.2067L59.0197 32.064L58.1593 28.9961H57.2107L58.8645 34.2801H59.8237L60.9204 30.1907L61.1284 31.098L61.9888 34.2801H62.9409L64.6336 28.965L63.7414 28.9754Z" fill="#F1F1F2"/>
<path d="M13.4387 3.24482e-06C10.782 -0.00166483 8.16588 0.639824 5.82185 1.86769C3.47781 3.09555 1.4782 4.87192 0 7.03956H3.56862C4.82071 5.69099 6.34554 4.61374 8.04566 3.87665C9.74578 3.13957 11.5838 2.75886 13.4423 2.75886C15.3007 2.75886 17.1387 3.13957 18.8389 3.87665C20.539 4.61374 22.0638 5.69099 23.3159 7.03956H26.8775C25.3993 4.87192 23.3996 3.09555 21.0556 1.86769C18.7116 0.639824 16.0954 -0.00166483 13.4387 3.24482e-06Z" fill="#F1F1F2"/>
<path d="M13.4387 29.0066C10.2541 29.0101 7.17373 27.8921 4.75698 25.8556H0.846313C2.36164 27.7026 4.27916 29.1928 6.45798 30.2166C8.6368 31.2404 11.0215 31.7718 13.437 31.7718C15.8524 31.7718 18.2371 31.2404 20.416 30.2166C22.5948 29.1928 24.5123 27.7026 26.0276 25.8556H22.1205C19.7039 27.8924 16.6234 29.0104 13.4387 29.0066Z" fill="#F1F1F2"/>
</g>
<defs>
<clipPath id="clip0_1191_1498">
<rect width="120" height="34.4118" fill="white"/>
</clipPath>
</defs>
</svg>
