<svg width="120" height="37" viewBox="0 0 120 37" fill="none" xmlns="http://www.w3.org/2000/svg">
<path d="M5.10843 11.4588H6.44652V13.8023H0V11.4588H1.42311V2.93116H0V0.587642H6.44652V2.93116H5.10843V11.4588ZM12.1316 11.3774L13.9798 11.5438V13.5657C13.7963 13.6583 13.5968 13.7148 13.3921 13.732C13.1407 13.8134 12.9744 13.8134 12.723 13.8984C12.4717 13.8984 12.3053 13.9834 12.1353 13.9834H11.64C11.1309 14.0328 10.6171 13.9749 10.1318 13.8134C9.70443 13.6257 9.35098 13.3022 9.12641 12.893L5.61114 7.718V6.53145L8.79004 1.67438C9.00878 1.26697 9.32658 0.921201 9.71414 0.668962C10.1068 0.489376 10.5357 0.403335 10.9672 0.417607C11.8147 0.393271 12.6532 0.596202 13.3958 1.00533L13.2294 3.01248L11.5549 3.18251L8.87136 6.86413L12.1316 11.3774Z" fill="#F1F1F2"/>
<path d="M26.0412 8.87129C26.0662 9.55742 25.9518 10.2415 25.7048 10.8821C25.4696 11.4689 25.1288 12.0076 24.6994 12.4716C24.2155 12.9833 23.6103 13.3647 22.9399 13.5805C22.1623 13.8605 21.3415 14.0019 20.5151 13.9982C19.6603 13.9943 18.8116 13.8533 18.0015 13.5805C17.3641 13.3957 16.7866 13.0464 16.327 12.5677C15.8705 12.1237 15.5259 11.5777 15.3216 10.9745C15.0757 10.3054 14.9627 9.59476 14.9889 8.88238C14.9627 8.1965 15.0759 7.51242 15.3216 6.87154C15.5569 6.28475 15.8976 5.74604 16.327 5.28208C16.8133 4.7782 17.4183 4.40452 18.0865 4.19534C18.891 3.90527 19.7412 3.76252 20.5964 3.77395C21.4515 3.7775 22.3004 3.91981 23.1099 4.19534C23.7374 4.43755 24.3076 4.80764 24.7844 5.28208C25.2138 5.74604 25.5546 6.28475 25.7898 6.87154C25.9645 7.52352 26.0491 8.19636 26.0412 8.87129ZM22.4409 8.87129C22.4549 8.47878 22.4264 8.0859 22.3559 7.69953C22.2957 7.37616 22.182 7.06508 22.0195 6.77913C21.8726 6.52069 21.6752 6.29442 21.4392 6.11377C21.1592 5.94861 20.8401 5.86149 20.5151 5.86149C20.19 5.86149 19.8709 5.94861 19.591 6.11377C19.3532 6.29513 19.1545 6.52271 19.0069 6.78282C18.8459 7.06946 18.7323 7.38028 18.6705 7.70323C18.6032 8.06134 18.5759 8.42583 18.5892 8.78997C18.5641 9.53778 18.7068 10.2817 19.0069 10.9671C19.2791 11.3362 19.6788 11.591 20.1283 11.6818C20.5778 11.7727 21.045 11.6932 21.4392 11.4588C21.674 11.3089 21.8733 11.1096 22.0232 10.8747C22.1813 10.5963 22.2936 10.2943 22.3559 9.98021C22.4349 9.61621 22.4635 9.24308 22.4409 8.87129Z" fill="#F1F1F2"/>
<path d="M33.8259 13.8134V11.7213H34.5652V5.94379H32.8981V6.53152C32.8981 7.53694 32.8131 8.45734 32.7318 9.37775C32.5839 10.1605 32.3354 10.9209 31.9925 11.6399C31.6247 12.3065 31.1056 12.8775 30.477 13.307C29.6757 13.7815 28.8014 14.12 27.8895 14.3087L26.9691 11.7213C27.4649 11.547 27.9417 11.3228 28.3922 11.0522C28.7302 10.8389 29.0158 10.5521 29.2276 10.2131C29.4315 9.8195 29.5736 9.39687 29.649 8.96005C29.7205 8.31705 29.7452 7.66972 29.7229 7.02314V5.91422H28.2998V3.93665H39.0194V6.02881H37.9105V11.8063H39.0194V13.8984H33.8444L33.8259 13.8134Z" fill="#F1F1F2"/>
<path d="M50.8219 6.78288H48.5634V5.94379H45.9759V7.53694H47.6504C48.1838 7.55025 48.7153 7.60587 49.2398 7.70328C49.7181 7.7676 50.1756 7.93947 50.5779 8.20599C51.0158 8.45538 51.3737 8.82408 51.6099 9.26912C51.8462 9.71415 51.9511 10.2172 51.9123 10.7195C51.9173 11.2054 51.832 11.6879 51.661 12.1427C51.5141 12.5407 51.2578 12.8892 50.9217 13.1481C50.558 13.3935 50.1641 13.591 49.7499 13.7358C49.2327 13.8774 48.6958 13.9336 48.1605 13.9021H41.5439V11.8063H42.7157V5.94379H41.5439V3.93665H50.9217V6.78288H50.8219ZM45.9685 9.54409V11.8063H47.2216C47.5473 11.8126 47.868 11.7253 48.1457 11.5549C48.2651 11.4526 48.3578 11.3227 48.4158 11.1765C48.4737 11.0303 48.4952 10.8722 48.4784 10.7158C48.4889 10.5513 48.4549 10.3869 48.3801 10.24C48.3054 10.093 48.1925 9.96886 48.0533 9.88046C47.7768 9.71055 47.4574 9.62333 47.1329 9.6291H45.9611L45.9685 9.54409Z" fill="#F1F1F2"/>
<path d="M60.7873 10.9672H57.771L57.5233 11.8063H58.3587V13.8984H53.4203V11.8063H54.3371L57.5197 3.93665H61.5376L64.6352 11.8063H65.5556V13.8984H60.2846V11.8063H61.1236L60.7873 10.9672ZM59.2791 6.19515L58.8614 7.61826L58.3587 9.12639H60.2846L59.7818 7.61826L59.2791 6.19515Z" fill="#F1F1F2"/>
<path d="M75.7762 13.3957C75.1728 13.5858 74.5546 13.7255 73.928 13.8134C73.2632 13.9122 72.5929 13.969 71.9209 13.9834C70.9829 13.9919 70.0496 13.8509 69.156 13.5657C68.5157 13.3383 67.9408 12.9576 67.4815 12.4568C67.0911 11.9938 66.8061 11.4514 66.6461 10.8673C66.4739 10.2401 66.3893 9.59196 66.3948 8.9415C66.3944 8.31688 66.4789 7.69511 66.6461 7.0933C66.8047 6.48295 67.0892 5.91255 67.4815 5.41883C67.9465 4.87089 68.5562 4.46483 69.241 4.24707C70.1443 3.88262 71.1138 3.71137 72.0872 3.74436C72.6467 3.7304 73.2065 3.75882 73.7617 3.82938C74.2726 3.90084 74.777 4.01333 75.2698 4.16575V7.51469H72.7563V6.11375H72.0798C71.7107 6.12126 71.344 6.17719 70.9894 6.28009C70.7293 6.42767 70.5017 6.62633 70.3204 6.86412C70.1247 7.1023 70.0084 7.39567 69.9877 7.7032C69.9173 8.06093 69.8888 8.42563 69.9027 8.78995C69.9015 9.24242 69.9574 9.69324 70.069 10.1317C70.141 10.4648 70.3298 10.7612 70.6013 10.9671C70.8529 11.1576 71.1373 11.3004 71.4404 11.3885C71.8267 11.459 72.2197 11.4863 72.6121 11.4698H73.1148C73.3409 11.4831 73.5675 11.4555 73.7839 11.3885C74.0352 11.3885 74.2866 11.3035 74.5232 11.3035C74.7597 11.3035 75.0259 11.2185 75.1922 11.2185L75.7762 13.3957Z" fill="#F1F1F2"/>
<path d="M88.0815 8.87142C88.1077 9.5573 87.9945 10.2414 87.7488 10.8823C87.5136 11.469 87.1728 12.0078 86.7434 12.4717C86.2743 13.0012 85.6639 13.3859 84.9839 13.5806C83.4128 14.1377 81.6979 14.1377 80.1268 13.5806C79.4674 13.344 78.868 12.9655 78.3711 12.4717C77.9122 12.0311 77.5672 11.4857 77.3656 10.8823C77.1188 10.212 77.0045 9.50022 77.0293 8.7864C77.0042 8.10147 77.1186 7.4186 77.3656 6.77926C77.5961 6.1873 77.9345 5.64332 78.3637 5.17502C78.8346 4.65428 79.4433 4.27751 80.1194 4.08828C80.9019 3.81495 81.7266 3.6823 82.5554 3.69646C83.4103 3.69882 84.2592 3.83988 85.0689 4.11415C85.6942 4.34872 86.2642 4.70988 86.7434 5.17502C87.1728 5.64039 87.5135 6.1803 87.7488 6.76817C87.9479 7.45242 88.0597 8.15911 88.0815 8.87142ZM84.4812 8.87142C84.4946 8.47908 84.4674 8.08639 84.3999 7.69966C84.3382 7.37672 84.2246 7.06589 84.0635 6.77926C83.9148 6.5188 83.7149 6.2912 83.4758 6.11021C83.2004 5.93774 82.8802 5.85031 82.5554 5.85885C82.2292 5.83863 81.9056 5.92702 81.635 6.11021C81.3972 6.29157 81.1985 6.51915 81.0509 6.77926C80.8884 7.06522 80.7747 7.37629 80.7146 7.69966C80.6442 8.05739 80.6157 8.42209 80.6296 8.7864C80.6053 9.53452 80.7493 10.2785 81.0509 10.9636C81.2266 11.2167 81.4663 11.4185 81.7456 11.5484C82.0249 11.6783 82.3337 11.7316 82.6404 11.7029C82.9652 11.711 83.2852 11.6236 83.5608 11.4515C83.796 11.3008 83.9963 11.1017 84.1485 10.8675C84.3093 10.5811 84.4217 10.2701 84.4812 9.94707C84.4411 9.58964 84.4411 9.22885 84.4812 8.87142Z" fill="#F1F1F2"/>
<path d="M93.859 15.7393H95.0308V14.0648C94.1161 14.0587 93.2099 13.8897 92.3546 13.5658C91.7205 13.2931 91.1493 12.893 90.6764 12.3903C90.2845 11.9284 89.9993 11.3857 89.841 10.8009C89.6823 10.2566 89.5978 9.69333 89.5897 9.12641C89.5642 8.4679 89.6788 7.81147 89.926 7.20059C90.1608 6.61727 90.5337 6.09972 91.0128 5.69246C91.5287 5.24266 92.1295 4.90079 92.7797 4.68704C93.529 4.40664 94.3231 4.26509 95.1232 4.26934V2.17718H93.8664V0H98.6384V4.103C99.4321 4.11321 100.221 4.22627 100.986 4.43938C101.608 4.65212 102.178 4.99342 102.66 5.4411C103.14 5.82954 103.49 6.35591 103.662 6.94923C103.902 7.56221 104.016 8.21708 103.998 8.87506C104.023 9.56119 103.909 10.2453 103.662 10.8859C103.428 11.4724 103.088 12.0111 102.66 12.4754C102.178 12.923 101.607 13.2653 100.986 13.4808C100.207 13.762 99.3849 13.9034 98.5571 13.8985V15.5729H99.8028V17.7427H93.7777V15.7393H93.859ZM95.0308 6.44652C94.7063 6.44075 94.3869 6.52797 94.1104 6.69788C93.8539 6.82338 93.646 7.02996 93.5189 7.28561C93.357 7.54132 93.243 7.82441 93.1826 8.12099C93.1124 8.42248 93.0838 8.73215 93.0975 9.0414C93.0975 10.8009 93.7703 11.6289 95.1084 11.7213V6.44652H95.0308ZM98.5497 11.7213C98.8432 11.74 99.1365 11.6816 99.4004 11.5519C99.6643 11.4222 99.8897 11.2258 100.054 10.982C100.42 10.4377 100.596 9.78833 100.557 9.13381C100.57 8.79662 100.543 8.45904 100.476 8.12839C100.413 7.8324 100.299 7.54966 100.139 7.293C99.9885 7.05783 99.7894 6.85748 99.5551 6.70527C99.2519 6.52474 98.9023 6.43733 98.5497 6.45392V11.7213Z" fill="#F1F1F2"/>
<path d="M109.783 15.7393H110.955V14.0648C110.039 14.0586 109.132 13.8897 108.275 13.5658C107.643 13.2922 107.073 12.8922 106.601 12.3903C106.209 11.9284 105.923 11.3857 105.765 10.8009C105.605 10.257 105.52 9.69348 105.514 9.12641C105.487 8.46816 105.601 7.81175 105.846 7.20059C106.083 6.61703 106.457 6.0995 106.937 5.69246C107.444 5.24604 108.035 4.90434 108.674 4.68704C109.424 4.40664 110.218 4.26509 111.018 4.26934V2.17718H109.783V0H114.555V4.103C115.348 4.11315 116.135 4.22622 116.899 4.43938C117.522 4.65038 118.093 4.99189 118.573 5.4411C119.053 5.84894 119.427 6.36624 119.664 6.94923C119.902 7.56244 120.015 8.21732 119.996 8.87506C120.023 9.56094 119.909 10.245 119.664 10.8859C119.428 11.4727 119.088 12.0114 118.658 12.4754C118.176 12.9237 117.606 13.2662 116.984 13.4808C116.205 13.7625 115.383 13.9039 114.555 13.8985V15.5729H115.812V17.7427H109.783V15.7393ZM111.04 6.44652C110.715 6.44033 110.396 6.52759 110.12 6.69788C109.866 6.8258 109.66 7.03181 109.532 7.28561C109.372 7.54226 109.258 7.82501 109.195 8.12099C109.128 8.42292 109.101 8.73236 109.114 9.0414C109.114 10.8009 109.783 11.6289 111.121 11.7213V6.44652H111.04ZM114.555 11.7213C114.849 11.7399 115.143 11.6815 115.407 11.5519C115.672 11.4222 115.898 11.2258 116.063 10.982C116.427 10.4369 116.604 9.78813 116.566 9.13381C116.58 8.79643 116.551 8.45863 116.481 8.12839C116.42 7.83264 116.307 7.54991 116.148 7.293C115.996 7.05774 115.796 6.85742 115.561 6.70527C115.257 6.52474 114.908 6.43733 114.555 6.45392V11.7213Z" fill="#F1F1F2"/>
<path d="M12.2906 30.8464V30.0591H12.7637V27.1722H12.298V26.3849H16.3197V27.9041H15.4658V27.1648H14.0094V30.0517H14.6082V30.8391L12.2906 30.8464Z" fill="#F1F1F2"/>
<path d="M21.3467 28.6027C21.3498 28.9154 21.3011 29.2264 21.2025 29.5231C21.117 29.7963 20.9746 30.0482 20.7848 30.2624C20.5927 30.4759 20.3535 30.6417 20.0862 30.7467C19.777 30.8689 19.4464 30.9279 19.1141 30.9204C18.772 30.9285 18.4317 30.8695 18.1123 30.7467C17.8459 30.6415 17.6061 30.4786 17.41 30.2698C17.2153 30.0591 17.0723 29.806 16.9923 29.5305C16.898 29.2292 16.8519 28.9148 16.8556 28.599C16.8574 28.2913 16.9073 27.9858 17.0034 27.6934C17.087 27.4203 17.2282 27.1682 17.4174 26.9541C17.608 26.7398 17.846 26.5727 18.1123 26.4662C18.7566 26.2295 19.4641 26.2295 20.1084 26.4662C20.3748 26.5744 20.6126 26.7426 20.8033 26.9578C20.9889 27.1732 21.1274 27.4251 21.2099 27.6971C21.3013 27.9903 21.3474 28.2957 21.3467 28.6027ZM20.016 28.6027C20.0109 28.4168 19.9923 28.2315 19.9605 28.0483C19.9389 27.8872 19.8901 27.731 19.8164 27.5862C19.7532 27.4591 19.6591 27.3498 19.5428 27.2683C19.4099 27.1864 19.2553 27.1464 19.0993 27.1537C18.9406 27.1481 18.7838 27.1892 18.6483 27.272C18.5266 27.3531 18.4274 27.4638 18.36 27.5936C18.285 27.7382 18.235 27.8944 18.2121 28.0557C18.1818 28.2389 18.167 28.4244 18.1678 28.6101C18.1669 28.8144 18.183 29.0184 18.2158 29.22C18.2416 29.3798 18.2954 29.5337 18.3748 29.6747C18.4444 29.7931 18.5438 29.8912 18.6631 29.9593C18.7975 30.0295 18.9477 30.0638 19.0993 30.0591C19.242 30.0658 19.3836 30.0309 19.5069 29.9587C19.6303 29.8866 19.73 29.7802 19.7942 29.6525C19.8768 29.5136 19.9332 29.3608 19.9605 29.2016C19.9974 29.0066 20.0159 28.8086 20.016 28.6101V28.6027Z" fill="#F1F1F2"/>
<path d="M26.2444 27.7931C26.2456 27.9722 26.2143 28.1501 26.152 28.318C26.0856 28.4932 25.9832 28.6524 25.8514 28.7855C25.7196 28.9186 25.5613 29.0225 25.3868 29.0905C25.1676 29.1748 24.934 29.215 24.6993 29.2088H23.96V30.059H24.5514V30.8463H22.2596V30.059H22.7328V27.1684H22.2781V26.3774H24.6142C24.8648 26.3742 25.1142 26.4104 25.3535 26.4846C25.5429 26.5451 25.717 26.646 25.8636 26.7803C25.9928 26.9038 26.0915 27.0557 26.152 27.2239C26.214 27.4072 26.2452 27.5996 26.2444 27.7931ZM23.9785 27.1684V28.4622H24.374C24.4515 28.4671 24.5291 28.4555 24.6018 28.4281C24.6744 28.4007 24.7404 28.3581 24.7954 28.3032C24.9026 28.1727 24.9556 28.0059 24.9432 27.8375C24.959 27.6583 24.9032 27.4802 24.788 27.3422C24.7284 27.2862 24.658 27.2432 24.581 27.2158C24.504 27.1885 24.4222 27.1774 24.3407 27.1832L23.9785 27.1684Z" fill="#F1F1F2"/>
<path d="M31.5561 28.6027C31.5617 28.915 31.5154 29.226 31.4193 29.5231C31.331 29.7958 31.1876 30.0475 30.998 30.2624C30.8086 30.4732 30.5734 30.6376 30.3104 30.7429C30.0025 30.8651 29.6732 30.9242 29.342 30.9167C29.0014 30.925 28.6625 30.8673 28.3439 30.7466C28.0801 30.6426 27.8433 30.4801 27.6512 30.2714C27.4591 30.0627 27.3169 29.8132 27.235 29.5416C27.1438 29.2396 27.0989 28.9256 27.102 28.6101C27.0994 28.2996 27.1443 27.9904 27.235 27.6934C27.3199 27.42 27.4624 27.168 27.6527 26.9541C27.8448 26.7389 28.0838 26.5706 28.3513 26.4625C28.6702 26.3377 29.0107 26.2774 29.3531 26.2851C29.6809 26.2832 30.006 26.3447 30.3104 26.4662C30.5772 26.5738 30.8151 26.7421 31.0053 26.9578C31.1934 27.1721 31.3333 27.4242 31.4156 27.6971C31.5083 27.9901 31.5556 28.2955 31.5561 28.6027ZM30.2217 28.6027C30.223 28.4148 30.2107 28.227 30.1848 28.0409C30.1631 27.8798 30.1143 27.7236 30.0406 27.5788C29.9762 27.4524 29.8824 27.3434 29.7671 27.2609C29.6341 27.179 29.4795 27.139 29.3235 27.1463C29.1637 27.1413 29.0059 27.1823 28.8688 27.2646C28.7489 27.3478 28.6501 27.4579 28.5805 27.5862C28.5071 27.7315 28.4572 27.8874 28.4327 28.0483C28.4054 28.2318 28.3918 28.4172 28.392 28.6027C28.3893 28.8071 28.4054 29.0112 28.44 29.2126C28.4658 29.3724 28.5196 29.5263 28.599 29.6673C28.6686 29.7857 28.768 29.8838 28.8873 29.9519C29.0216 30.0224 29.1719 30.0568 29.3235 30.0517C29.4703 30.0544 29.615 30.016 29.7412 29.9408C29.8586 29.8675 29.9544 29.7642 30.0184 29.6414C30.0931 29.5039 30.1455 29.3555 30.1737 29.2015C30.2079 29.0063 30.224 28.8083 30.2217 28.6101V28.6027Z" fill="#F1F1F2"/>
<path d="M32.9535 30.8464V32.0441H32.0405V30.0776L32.4877 30.0591C32.7644 29.743 32.9553 29.3612 33.0422 28.9502C33.1448 28.4517 33.1931 27.9436 33.1864 27.4347V27.1759H32.6541V26.3849H36.9419V27.1722H36.4761V30.0591L36.9493 30.0776V32.0441H36.0511V30.8464H32.9535ZM34.2768 27.5197C34.2768 27.808 34.2768 28.0704 34.2546 28.3107C34.2411 28.5366 34.2127 28.7613 34.1696 28.9835C34.1345 29.1842 34.08 29.381 34.007 29.5712C33.9354 29.7498 33.8397 29.9177 33.7223 30.0702H35.2452V27.1722H34.2768V27.5197Z" fill="#F1F1F2"/>
<path d="M39.2447 28.5843C39.2393 28.8074 39.2654 29.0301 39.3223 29.2459C39.36 29.4023 39.4377 29.5463 39.5478 29.6636C39.6492 29.7682 39.7769 29.8436 39.9174 29.8817C40.0978 29.9247 40.2829 29.9446 40.4682 29.9408H40.6678L40.934 29.915L41.2223 29.8743C41.3121 29.8616 41.401 29.8431 41.4884 29.8189L41.6695 30.6727C41.5571 30.715 41.4423 30.7507 41.3258 30.7799C41.2039 30.813 41.0806 30.8401 40.9561 30.8612C40.8268 30.8834 40.6937 30.8982 40.5606 30.9093C40.4276 30.9204 40.2982 30.9093 40.191 30.9093C39.8127 30.9227 39.4356 30.8599 39.0821 30.7245C38.8125 30.6151 38.5748 30.4397 38.3908 30.2144C38.2213 29.9969 38.1026 29.7443 38.0434 29.4751C37.9759 29.1892 37.9424 28.8964 37.9436 28.6027C37.9437 28.3201 37.9772 28.0385 38.0434 27.7637C38.1044 27.479 38.2329 27.2132 38.4182 26.9887C38.6035 26.7642 38.84 26.5875 39.1079 26.4736C39.4793 26.3217 39.8788 26.2512 40.2797 26.2666C40.4987 26.265 40.7175 26.2811 40.934 26.3147C41.1301 26.3464 41.3239 26.3909 41.5143 26.4477V27.8819H40.6567V27.2462C40.5981 27.2333 40.5389 27.2234 40.4793 27.2166H40.2908C40.123 27.2122 39.9564 27.245 39.8029 27.3127C39.6752 27.3735 39.5665 27.4681 39.4887 27.5862C39.4013 27.7185 39.341 27.8667 39.3112 28.0224C39.2692 28.2068 39.2469 28.3951 39.2447 28.5843Z" fill="#F1F1F2"/>
<path d="M44.2532 30.0591H44.6931V30.8465H42.5307V30.0591H43.0038V27.1722H42.5307V26.3849H44.6931V27.1722H44.2532V30.0591ZM46.6189 30.0185L47.2362 30.0776V30.7577C47.1675 30.7843 47.0971 30.8065 47.0255 30.8243C46.9479 30.8243 46.8777 30.8612 46.8037 30.8723C46.7298 30.8834 46.667 30.8945 46.6041 30.9019H46.4452C46.2736 30.9149 46.1012 30.8923 45.9388 30.8354C45.794 30.7697 45.6728 30.6614 45.5913 30.5249L44.4344 28.758V28.3773L45.5063 26.7324C45.5817 26.5934 45.6943 26.4782 45.8316 26.3997C45.9606 26.3377 46.1025 26.3073 46.2456 26.311C46.5328 26.3089 46.8156 26.3815 47.0662 26.5217L47.0034 27.1981L46.4378 27.2462L45.547 28.4623L46.6189 30.0185Z" fill="#F1F1F2"/>
<path d="M50.9808 26.3885H53.1284V27.1685H52.6479V30.0591H53.1284V30.8464H51.0104V30.0591H51.4355V28.3107L50.589 29.0832L49.7462 29.8595V30.0591H50.1713V30.8464H48.02V30.0591H48.5116V27.1685H48.0163V26.3885H50.1639V27.1685H49.7388V28.8873L51.4318 27.3533V27.1685H50.9808V26.3885Z" fill="#F1F1F2"/>
<path d="M54.0156 30.8464V30.0591H54.4814V27.1722H54.0193V26.3849H58.0336V27.9152H57.1834V27.1759H55.7271V28.1961L57.0984 28.1444V28.965L55.7271 28.928V30.0628H57.25V29.257H58.1075V30.8464H54.0156Z" fill="#F1F1F2"/>
<path d="M65.3081 27.7932C65.3094 27.9723 65.2781 28.1502 65.2157 28.3181C65.1518 28.4859 65.0551 28.6392 64.9311 28.7691C64.7955 28.9108 64.6301 29.0207 64.4469 29.0906C64.2291 29.1752 63.9966 29.2154 63.7631 29.2089H63.0238V30.0591H63.6115V30.8464H61.3234V30.0591H61.7744V27.1685H61.3234V26.3775H63.6596C63.9101 26.3736 64.1597 26.4098 64.3988 26.4847C64.5897 26.5444 64.7651 26.6453 64.9126 26.7804C65.0418 26.9039 65.1405 27.0558 65.201 27.224C65.268 27.4064 65.3042 27.5988 65.3081 27.7932ZM63.0312 27.1685V28.4623H63.4267C63.5042 28.4672 63.5818 28.4556 63.6545 28.4282C63.7271 28.4007 63.7931 28.3582 63.8481 28.3033C63.9465 28.1624 63.9993 27.9947 63.9993 27.8228C63.9993 27.6509 63.9465 27.4831 63.8481 27.3422C63.7885 27.2863 63.7181 27.2433 63.6411 27.2159C63.5641 27.1886 63.4823 27.1775 63.4008 27.1833L63.0312 27.1685Z" fill="#F1F1F2"/>
<path d="M66.0843 30.8464V30.0591H66.5353V27.1722H66.0917V26.3849H70.1097V27.9152H69.2558V27.1759H67.7994V28.1961L69.1708 28.1444V28.965L67.7994 28.928V30.0628H69.3186V29.257H70.1799V30.8464H66.0843Z" fill="#F1F1F2"/>
<path d="M72.3791 28.5842C72.3746 28.8071 72.3994 29.0296 72.4531 29.2459C72.4923 29.4017 72.5698 29.5453 72.6786 29.6636C72.7805 29.7675 72.908 29.8427 73.0482 29.8817C73.2286 29.9243 73.4136 29.9442 73.599 29.9408H73.7986L74.0647 29.9149L74.3567 29.8743C74.4465 29.8616 74.5354 29.8431 74.6229 29.8188L74.804 30.6727C74.6915 30.7149 74.5768 30.7507 74.4602 30.7799C74.3345 30.8132 74.2052 30.839 74.0906 30.8612C73.976 30.8834 73.8244 30.8982 73.6914 30.9093C73.5583 30.9204 73.4289 30.9093 73.3217 30.9093C72.9435 30.9222 72.5664 30.8594 72.2128 30.7245C71.9438 30.616 71.7071 30.4404 71.5253 30.2144C71.3544 29.9973 71.2345 29.7446 71.1741 29.4751C71.1097 29.1888 71.0775 28.8962 71.078 28.6027C71.0787 28.3203 71.111 28.0389 71.1741 27.7636C71.244 27.494 71.3699 27.2421 71.5438 27.0244C71.7338 26.7888 71.9788 26.6034 72.2572 26.4847C72.6284 26.3325 73.028 26.2619 73.4289 26.2777C73.6467 26.276 73.8643 26.2921 74.0795 26.3257C74.2768 26.3575 74.4719 26.4019 74.6635 26.4588V27.893H73.8023V27.2461C73.7438 27.2327 73.6845 27.2228 73.6248 27.2166H73.4474C73.2796 27.2113 73.1128 27.2441 72.9595 27.3127C72.8307 27.3734 72.7209 27.468 72.6416 27.5862C72.5494 27.7161 72.484 27.8632 72.4494 28.0187C72.4058 28.2042 72.3823 28.3938 72.3791 28.5842Z" fill="#F1F1F2"/>
<path d="M76.4785 30.8465V30.0592H77.0108V27.1686H76.3381V27.9301H75.4879V26.3776H79.7535V27.9301H78.9034V27.1686H78.238V30.0592H78.7629V30.8465H76.4785Z" fill="#F1F1F2"/>
<path d="M85.0173 28.6028C85.0204 28.9155 84.9717 29.2265 84.8731 29.5232C84.7876 29.7964 84.6452 30.0483 84.4554 30.2625C84.2615 30.4739 84.0228 30.6394 83.7568 30.7467C83.4476 30.8689 83.117 30.928 82.7846 30.9205C82.4453 30.9296 82.1074 30.8718 81.7903 30.7504C81.5239 30.6453 81.284 30.4824 81.088 30.2736C80.8933 30.0629 80.7503 29.8098 80.6703 29.5343C80.576 29.233 80.5298 28.9186 80.5335 28.6028C80.5307 28.292 80.5768 27.9826 80.6703 27.6861C80.7539 27.413 80.8951 27.1609 81.0843 26.9468C81.2766 26.7302 81.5172 26.5618 81.7866 26.4552C82.4309 26.2185 83.1384 26.2185 83.7827 26.4552C84.0485 26.5644 84.2861 26.7325 84.4776 26.9468C84.6631 27.1623 84.8016 27.4141 84.8842 27.6861C84.9754 27.983 85.0203 28.2922 85.0173 28.6028ZM83.6829 28.6028C83.6842 28.4149 83.6718 28.2271 83.6459 28.041C83.6242 27.8799 83.5755 27.7237 83.5017 27.5789C83.4385 27.4518 83.3445 27.3425 83.2282 27.261C83.0952 27.1791 82.9407 27.1392 82.7846 27.1465C82.626 27.1408 82.4691 27.1819 82.3337 27.2647C82.2119 27.3458 82.1127 27.4565 82.0454 27.5863C81.9691 27.7307 81.9179 27.8869 81.8938 28.0484C81.8666 28.2319 81.853 28.4173 81.8531 28.6028C81.8505 28.8072 81.8666 29.0113 81.9012 29.2127C81.9269 29.3725 81.9808 29.5264 82.0601 29.6674C82.1298 29.7858 82.2292 29.8839 82.3485 29.952C82.4828 30.0225 82.6331 30.0569 82.7846 30.0518C82.9311 30.0557 83.0758 30.0185 83.2023 29.9446C83.3198 29.8713 83.4155 29.768 83.4796 29.6452C83.5587 29.5044 83.6113 29.3503 83.6348 29.1906C83.6647 28.9986 83.6771 28.8044 83.6718 28.6102L83.6829 28.6028Z" fill="#F1F1F2"/>
<path d="M89.915 27.7931C89.9162 27.9722 89.8849 28.1501 89.8226 28.318C89.7586 28.4858 89.6619 28.6391 89.5379 28.769C89.4023 28.9107 89.237 29.0206 89.0537 29.0905C88.8359 29.1751 88.6034 29.2153 88.3699 29.2088H87.6306V30.059H88.2183V30.8463H85.9302V30.059H86.3812V27.1684H85.9302V26.3774H88.2664C88.5169 26.3742 88.7664 26.4104 89.0056 26.4846C89.1951 26.5451 89.3691 26.646 89.5158 26.7803C89.6449 26.9038 89.7436 27.0557 89.8041 27.2239C89.8724 27.4061 89.9099 27.5985 89.915 27.7931ZM87.638 27.1684V28.4622H88.0335C88.111 28.4671 88.1886 28.4555 88.2613 28.4281C88.334 28.4007 88.3999 28.3581 88.4549 28.3032C88.5533 28.1623 88.6061 27.9946 88.6061 27.8227C88.6061 27.6508 88.5533 27.4831 88.4549 27.3422C88.3954 27.2862 88.3249 27.2432 88.2479 27.2158C88.1709 27.1885 88.0891 27.1774 88.0076 27.1832L87.638 27.1684Z" fill="#F1F1F2"/>
<path d="M93.3563 30.0591L93.2158 29.6045H91.7373L91.5894 30.0591H91.9849V30.8464H90.0776V30.0591H90.425L91.7853 26.3849H93.3156L94.5983 30.0591H94.9679V30.8464H92.9903V30.0591H93.3563ZM92.9866 28.8615C92.9127 28.6027 92.8351 28.3514 92.7575 28.1222C92.6798 27.893 92.6022 27.6232 92.5246 27.3829H92.4987C92.4987 27.4605 92.447 27.5603 92.41 27.6823C92.373 27.8043 92.3287 27.9374 92.2806 28.0778L92.1328 28.4623C92.0884 28.6064 92.0441 28.7358 92.0034 28.8541L92.9866 28.8615Z" fill="#F1F1F2"/>
<path d="M98.5461 30.8464V30.0591H98.9527V28.9206H97.4261V30.0591H97.8327V30.8464H95.6999V30.0591H96.1767V27.1722H95.6999V26.3849H97.8327V27.1722H97.4261V28.1813H98.9527V27.1722H98.5461V26.3849H100.668V27.1722H100.202V30.0591H100.668V30.8464H98.5461Z" fill="#F1F1F2"/>
<path d="M103.751 27.1686H103.278V28.0594H104.076C104.292 28.0592 104.508 28.0815 104.719 28.126C104.916 28.168 105.104 28.2456 105.274 28.3551C105.437 28.4657 105.572 28.614 105.665 28.7876C105.772 28.9915 105.824 29.2194 105.817 29.4493C105.822 29.6628 105.785 29.8753 105.706 30.074C105.638 30.2412 105.53 30.3896 105.392 30.5064C105.247 30.6259 105.078 30.7129 104.897 30.7615C104.686 30.8216 104.468 30.8502 104.25 30.8465H101.559V30.0592H102.021V27.1686H101.548V26.3776H103.74L103.751 27.1686ZM103.278 28.832V30.0555H103.913C103.991 30.0582 104.069 30.0452 104.142 30.0173C104.215 29.9893 104.282 29.947 104.338 29.8928C104.395 29.8312 104.438 29.7589 104.466 29.6801C104.494 29.6014 104.506 29.5179 104.501 29.4345C104.507 29.3524 104.495 29.2701 104.466 29.193C104.437 29.1159 104.393 29.0457 104.335 28.9872C104.213 28.881 104.056 28.8254 103.895 28.832H103.278ZM106.087 30.8465V30.0592H106.553V27.1686H106.087V26.385H108.26V27.1686H107.802V30.0592H108.26V30.8465H106.087Z" fill="#F1F1F2"/>
<path d="M4.37653 21.1804H115.546" stroke="#F1F1F2" stroke-miterlimit="10"/>
<path d="M4.37653 36.125H115.546" stroke="#F1F1F2" stroke-miterlimit="10"/>
<path d="M7.63305 30.1478C8.40677 30.1478 9.03399 29.5206 9.03399 28.7469C9.03399 27.9732 8.40677 27.3459 7.63305 27.3459C6.85934 27.3459 6.23212 27.9732 6.23212 28.7469C6.23212 29.5206 6.85934 30.1478 7.63305 30.1478Z" fill="#F1F1F2"/>
<path d="M112.74 30.1478C113.514 30.1478 114.141 29.5206 114.141 28.7469C114.141 27.9732 113.514 27.3459 112.74 27.3459C111.966 27.3459 111.339 27.9732 111.339 28.7469C111.339 29.5206 111.966 30.1478 112.74 30.1478Z" fill="#F1F1F2"/>
</svg>
