<svg width="85" height="53" viewBox="0 0 85 53" fill="none" xmlns="http://www.w3.org/2000/svg">
<g clip-path="url(#clip0_1191_1371)">
<path d="M0 52.7215V13.4585L25.2809 0V52.7215H0Z" fill="#F1F1F2"/>
<path d="M6.96661 29.1063H9.98309V42.816H6.96661V29.1063Z" fill="#4A4A4A"/>
<path d="M13.1073 29.1063H15.8724L22.3004 37.5403V29.1063H25.2809V42.816H22.7313L16.0879 34.0949V42.816H13.1073V29.1063Z" fill="#4A4A4A"/>
<path d="M27.687 35.9611C27.687 32.0492 30.7393 28.8909 34.869 28.8909C37.3469 28.8909 38.8192 29.5728 40.2556 30.7572L38.3524 33.0541C37.311 32.1569 36.3414 31.6544 34.7613 31.6544C32.5708 31.6544 30.8112 33.5924 30.8112 35.9611C30.8112 38.4734 32.5349 40.3038 34.9768 40.3038C36.09 40.3038 37.0596 40.0166 37.8137 39.4783V37.5044H34.7613V34.8845H40.7224V40.8421C39.3219 42.0265 37.3828 43.0314 34.869 43.0314C30.5957 43.0314 27.687 40.0525 27.687 35.9611Z" fill="#F1F1F2"/>
<path d="M43.3439 29.1063H49.5923C51.3519 29.1063 52.6806 29.6087 53.5784 30.5059C54.3325 31.2596 54.7634 32.3363 54.7634 33.6642C54.7634 35.8894 53.5784 37.2532 51.8188 37.8992L55.1584 42.7801H51.6392L48.6586 38.4016H46.3245V42.7801H43.308V29.1063H43.3439ZM49.4128 35.7458C50.8851 35.7458 51.711 34.9562 51.711 33.7719C51.711 32.4799 50.8133 31.798 49.3409 31.798H46.3604V35.7458H49.4128Z" fill="#F1F1F2"/>
<path d="M61.9096 28.9986H64.6747L70.564 42.7801H67.4039L66.147 39.6936H60.3654L59.1086 42.7801H56.0203L61.9096 28.9986ZM65.0697 37.0737L63.2383 32.6234L61.4068 37.0737H65.0697Z" fill="#F1F1F2"/>
<path d="M72.3595 29.1063H77.7102C82.0194 29.1063 85 32.0492 85 35.9611C85 39.8013 82.0194 42.816 77.7102 42.816H72.3595V29.1063ZM77.7102 40.0884C80.188 40.0884 81.8399 38.4375 81.8399 35.9611C81.8399 33.5207 80.188 31.8339 77.7102 31.8339H75.376V40.0884H77.7102Z" fill="#F1F1F2"/>
</g>
<defs>
<clipPath id="clip0_1191_1371">
<rect width="85" height="52.7215" fill="white"/>
</clipPath>
</defs>
</svg>
