<svg width="90" height="71" viewBox="0 0 90 71" fill="none" xmlns="http://www.w3.org/2000/svg">
<path d="M4.30362 63.2142C4.30362 62.8768 4.26184 62.666 4.13649 62.5816C4.01114 62.4973 3.80223 62.4551 3.42618 62.4551H3.21727V61.7382H7.89694V62.4551H7.68802C7.31198 62.4551 7.06128 62.4973 6.97772 62.5816C6.85237 62.666 6.81059 62.8768 6.81059 63.2142V67.1783C6.81059 68.3169 6.51811 69.1603 5.97493 69.7085C5.43175 70.2567 4.93036 70.5941 3.34262 70.5941C0.626741 70.5941 0 69.0338 0 68.2747C0 67.7687 0.417827 66.8409 1.54596 66.8409C2.67409 66.8409 3.05014 67.6843 3.05014 67.9795C3.05014 68.7386 2.21448 68.6542 2.21448 69.0759C2.25627 69.4133 2.4234 69.6663 3.1337 69.6663C4.3454 69.6663 4.3454 68.3169 4.3454 67.6V63.2142H4.30362Z" fill="#F1F1F2"/>
<path d="M16.2952 63.8468V68.9916C16.2952 69.2447 16.3369 69.4134 16.4205 69.4977C16.5041 69.582 16.6712 69.6242 16.9637 69.6242H17.3397V70.2568H14.0807V69.4555C13.7046 70.3411 12.4929 70.4255 11.9915 70.4255C10.9052 70.4255 9.23387 70.1303 9.23387 68.0639V65.1119C9.23387 64.8589 9.19209 64.6902 9.10852 64.6059C9.02496 64.5215 8.85783 64.4794 8.56535 64.4794H8.14752V63.8468H11.6573V68.0639C11.6573 68.4434 11.7408 68.7386 11.908 68.9073C12.0751 69.1182 12.3258 69.2025 12.6183 69.2025C12.9943 69.2025 13.245 69.076 13.4539 68.823C13.6628 68.5699 13.7464 68.2326 13.7464 67.7687V65.1119C13.7464 64.8589 13.7046 64.6902 13.6211 64.6059C13.5375 64.5215 13.0779 64.4794 12.7854 64.4794H12.6601V63.8468H16.2952Z" fill="#F1F1F2"/>
<path d="M21.4345 61.8225V68.9916C21.4345 69.2868 21.4763 69.4554 21.5599 69.5398C21.6434 69.6241 21.8106 69.6663 22.0613 69.6663H22.4373V70.2989H18.0084V69.6663H18.3844C18.6351 69.6663 18.844 69.6241 18.9276 69.5398C19.0111 69.4554 19.0529 69.2868 19.0529 69.0337V63.2985C19.0529 62.9611 19.0111 62.7081 18.9276 62.6238C18.844 62.5394 18.6769 62.4972 18.4262 62.4972H18.0084V61.8647H21.4345V61.8225Z" fill="#F1F1F2"/>
<path d="M24.025 62.0333C24.025 61.7803 24.1921 61.5273 24.4846 61.3586C24.7771 61.1899 25.1531 61.0634 25.571 61.0634C25.9888 61.0634 26.3648 61.1478 26.6573 61.3586C26.9498 61.5273 27.1169 61.7803 27.1169 62.0333C27.1169 62.2864 26.9498 62.5394 26.6573 62.7081C26.3648 62.8768 25.9888 63.0033 25.571 63.0033C25.1531 63.0033 24.7771 62.9189 24.4846 62.7081C24.1921 62.5394 24.025 62.2864 24.025 62.0333ZM24.61 65.2805V65.1962C24.61 64.8588 24.5682 64.6479 24.4846 64.5636C24.401 64.4793 24.2339 64.4371 23.9832 64.4371H23.5236V63.8045H26.908V68.9494C26.908 69.2024 26.9498 69.3711 27.0334 69.4554C27.1169 69.5398 27.2841 69.5819 27.5348 69.5819H28.0779V70.2145H23.5236V69.5819H23.9414C24.1921 69.5819 24.401 69.5398 24.4846 69.4554C24.5682 69.3711 24.61 69.2024 24.61 68.9494V65.2805Z" fill="#F1F1F2"/>
<path d="M36.7272 63.8468V68.9916C36.7272 69.2447 36.7689 69.4134 36.8525 69.4977C36.9361 69.582 37.1032 69.6242 37.3957 69.6242H37.7717V70.2568H34.5127V69.4555C34.1366 70.3411 32.9249 70.4255 32.4235 70.4255C31.3372 70.4255 29.6659 70.1303 29.6659 68.0639V65.1119C29.6659 64.8589 29.6241 64.6902 29.5405 64.6059C29.457 64.5215 29.2898 64.4794 28.9974 64.4794H28.5795V63.8468H32.0893V68.0639C32.0893 68.4434 32.1728 68.7386 32.34 68.9073C32.5071 69.1182 32.7578 69.2025 33.0503 69.2025C33.4263 69.2025 33.677 69.076 33.8859 68.823C34.0948 68.5699 34.1784 68.2326 34.1784 67.7687V65.1119C34.1784 64.8589 34.1366 64.6902 34.0531 64.6059C33.9695 64.5215 33.5099 64.4794 33.2174 64.4794H33.0921V63.8468H36.7272Z" fill="#F1F1F2"/>
<path d="M38.8998 70.1724V68.359H39.4012C39.443 68.6542 39.6101 69.0759 39.6519 69.1181C39.7355 69.1603 39.8608 69.3289 40.9472 69.2868C42.0335 69.2868 42.2842 69.0337 42.2842 68.5699C42.2842 67.5578 40.1115 67.6843 39.3594 67.1361C38.6073 66.5878 38.6491 65.9974 38.6491 65.7022C38.6491 64.1419 40.2786 63.678 41.6157 63.678C42.0335 63.678 43.872 63.7202 44.248 63.8889V65.5757H43.7048C43.7048 65.3227 43.5795 64.9432 43.4959 64.9432C43.3288 64.8588 42.5349 64.7323 41.8246 64.7323C41.1143 64.7323 40.8636 65.1962 40.8636 65.407C40.9054 65.9974 41.1561 66.0818 42.2424 66.3348C43.287 66.5878 44.5405 66.8409 44.5405 68.2325C44.5405 68.8651 43.8302 70.2989 41.95 70.2989C40.0697 70.2989 38.8998 70.1724 38.8998 70.1724Z" fill="#F1F1F2"/>
<path d="M52.3955 68.8651C52.3955 69.2025 52.4373 69.3712 52.5626 69.4555C52.6462 69.5398 52.8969 69.582 53.2729 69.582H53.5236V70.2146H50.4317V69.582H50.6824C51.0584 69.582 51.3091 69.5398 51.3927 69.4555C51.4763 69.3712 51.5598 69.1603 51.5598 68.8651V63.1299C51.5598 62.7925 51.5181 62.6238 51.3927 62.5395C51.3091 62.4551 51.0584 62.413 50.6824 62.413H50.4317V61.7804H53.9414L56.1559 66.5035L58.454 61.7804H61.8384V62.413H61.5459C61.1699 62.413 60.9192 62.4551 60.8356 62.5395C60.7103 62.6238 60.6685 62.8347 60.6685 63.1299V68.8651C60.6685 69.2025 60.7103 69.3712 60.8356 69.4555C60.9609 69.5398 61.1699 69.582 61.5459 69.582H61.8384V70.2146H57.2005V69.582H57.493C57.869 69.582 58.0779 69.5398 58.2033 69.4555C58.2869 69.3712 58.3704 69.1603 58.3704 68.8651V64.0576L55.4456 70.2146H55.2367L52.3955 64.2263V68.8651Z" fill="#F1F1F2"/>
<path d="M68.7327 68.148H69.3176C69.3176 68.9493 69.3594 69.4975 69.1923 69.9614C68.3149 70.2566 66.9778 70.4674 66.0586 70.4674C64.9722 70.4674 64.1366 70.1722 63.4681 69.5397C62.7995 68.9071 62.5071 68.1059 62.5071 67.0938C62.5071 66.0395 62.8413 65.1961 63.4681 64.5635C64.0948 63.9309 64.9305 63.6357 66.0168 63.6357C67.1449 63.6357 67.9806 63.9309 68.6073 64.5213C69.2341 65.1117 69.443 65.9551 69.443 67.0516V67.3046H64.8051V67.4311C64.8051 68.0215 64.9305 68.4432 65.1394 68.7384C65.3483 69.0336 65.6408 69.371 66.8107 69.371C67.2285 69.371 68.1059 69.2866 68.3566 69.0758C68.6491 68.9071 68.6909 68.5276 68.7327 68.148ZM64.8469 66.2082H67.3121V66.166C67.3121 65.7021 67.2285 65.3648 67.0196 65.1539C66.8525 64.943 66.4764 64.8165 66.1004 64.8165C65.7661 64.8165 65.3065 64.943 65.1394 65.1961C64.9305 65.4069 64.8469 65.7443 64.8469 66.2082Z" fill="#F1F1F2"/>
<path d="M71.0725 62.0333C71.0725 61.7803 71.2396 61.5273 71.5321 61.3586C71.8246 61.1899 72.2006 61.0634 72.6184 61.0634C73.0363 61.0634 73.4123 61.1478 73.7048 61.3586C73.9973 61.5273 74.1644 61.7803 74.1644 62.0333C74.1644 62.2864 73.9973 62.5394 73.7048 62.7081C73.4123 62.8768 73.0363 63.0033 72.6184 63.0033C72.2006 63.0033 71.8246 62.9189 71.5321 62.7081C71.1978 62.5394 71.0725 62.2864 71.0725 62.0333ZM71.6157 65.2805V65.1962C71.6157 64.8588 71.5739 64.6479 71.4903 64.5636C71.4067 64.4793 71.2396 64.4371 70.9889 64.4371H70.5711V63.8045H73.9555V68.9494C73.9555 69.2024 73.9973 69.3711 74.0808 69.4554C74.1644 69.5398 74.3315 69.5819 74.5822 69.5819H75.1254V70.2145H70.5711V69.5819H70.9889C71.2396 69.5819 71.4485 69.5398 71.5321 69.4554C71.6157 69.3711 71.6574 69.2024 71.6574 68.9494V65.2805H71.6157Z" fill="#F1F1F2"/>
<path d="M75.794 70.2567V69.6241H76.17C76.4207 69.6241 76.6296 69.582 76.7132 69.4976C76.7968 69.4133 76.8386 69.2446 76.8386 68.9916V65.1118C76.8386 64.8588 76.7968 64.6901 76.7132 64.6058C76.6296 64.5215 76.4625 64.4793 76.17 64.4793H75.794V63.8467H79.053V64.648C79.4291 63.7624 80.6408 63.678 81.1422 63.678C82.2285 63.678 83.8998 63.9732 83.8998 66.0396V68.9916C83.8998 69.2446 83.9416 69.4133 84.0252 69.4976C84.1088 69.582 84.2759 69.6241 84.5684 69.6241H84.9862V70.2567H81.4764V66.0396C81.4764 65.6601 81.3929 65.3649 81.2257 65.1962C81.0586 64.9853 80.8079 64.901 80.5154 64.901C80.1394 64.901 79.8887 65.0275 79.6798 65.2805C79.4709 65.5336 79.3873 65.8709 79.3873 66.3348V68.9916C79.3873 69.2446 79.4291 69.4133 79.5127 69.4976C79.5962 69.582 80.0558 69.6241 80.3483 69.6241H80.4737V70.2567H75.794Z" fill="#F1F1F2"/>
<path d="M88.9973 61.8225V68.9916C88.9973 69.2868 89.039 69.4554 89.1226 69.5398C89.2062 69.6241 89.3733 69.6663 89.624 69.6663H90V70.2989H85.5711V69.6663H85.9471C86.1978 69.6663 86.4067 69.6241 86.4903 69.5398C86.5739 69.4554 86.6156 69.2868 86.6156 69.0337V63.2985C86.6156 62.9611 86.5739 62.7081 86.4903 62.6238C86.4067 62.5394 86.2396 62.4972 85.9889 62.4972H85.5711V61.8647H88.9973V61.8225Z" fill="#F1F1F2"/>
<path fill-rule="evenodd" clip-rule="evenodd" d="M68.3984 7.80161C68.5237 5.86175 68.3566 4.17492 67.4374 2.95196C66.5599 1.72901 64.1783 1.22296 62.7995 2.36157C62.0892 1.89769 61.1282 2.40374 60.7939 2.95196C59.4987 1.77118 57.9527 0.843418 56.3649 0C54.9026 2.3194 52.897 4.51228 50.8078 6.40997C48.8441 8.13898 46.6296 9.6993 44.2897 11.4705C40.6546 14.1694 36.8106 17.7961 33.8023 21.2963C33.3427 21.8445 32.6741 22.8988 32.4652 22.8988C32.4234 22.8988 32.0474 22.4771 32.0056 22.4349C30.3761 21.465 29.3315 24.0374 30.6686 25.0917C30.1672 25.2604 29.9583 25.6821 30 26.1459C30.0418 26.7363 30.585 26.7785 30.7521 27.2002C30.2925 28.381 30.209 29.3509 30.2925 30.2365C30.5014 32.5559 32.507 34.0741 33.1338 35.7609C33.7605 37.5321 32.2563 38.0803 31.7131 39.3876C32.0892 40.0623 32.9666 40.231 33.7187 40.5262C33.7187 40.9479 33.468 41.201 33.4262 41.5805C34.053 41.6227 34.2201 41.6227 34.8468 41.7913C34.7215 42.1709 34.5961 42.5083 34.7633 42.93H36.2675C37.1867 43.436 37.0195 44.7433 37.9805 45.1228C39.3176 45.6711 40.4875 44.659 41.741 44.3638C42.4931 45.0385 42.8691 46.0506 42.8691 47.2314C42.8691 50.5629 40.195 53.3883 38.8162 55.5391C39.6101 56.256 40.78 56.4668 42.117 56.509C48.0502 56.5512 50.0975 50.9846 53.6491 48.117C54.819 47.147 56.1143 46.5567 57.6184 45.9241C55.4039 45.2072 52.6463 43.9842 51.0168 42.2974C49.9722 41.2431 49.0948 39.5985 49.5961 37.7008C50.7661 38.1646 52.1031 37.7008 51.9778 36.267C53.3566 36.4356 53.6909 34.538 52.8134 33.8632C52.5627 33.6524 51.9778 33.9054 51.8524 33.7789C52.0195 28.2967 54.1087 24.1639 56.2814 20.5372C58.2034 17.3744 60.6268 14.2959 63.1755 11.9344C63.5098 11.6392 63.9276 11.1331 64.3872 11.0909C62.7995 15.0128 60.7521 19.4408 61.4624 25.0073C62.8831 25.2604 64.5544 25.2182 66.1839 25.2182C65.8496 23.4048 65.6407 21.718 65.7243 19.989C65.9332 15.7297 68.1477 11.7235 68.3984 7.80161ZM65.4736 8.34984C64.5961 7.21122 63.8441 5.90392 62.8413 4.93399C63.3427 4.55446 63.7187 4.09058 63.5934 3.12065C66.6017 2.06637 66.4346 6.53649 65.4736 8.34984Z" fill="#F1F1F2"/>
</svg>
