<svg width="95" height="55" viewBox="0 0 95 55" fill="none" xmlns="http://www.w3.org/2000/svg">
<path d="M87.106 0H7.89398C5.80037 0 3.7925 0.831685 2.31209 2.31209C0.831685 3.7925 0 5.80037 0 7.89398L0 46.6344C0 48.728 0.831685 50.7359 2.31209 52.2163C3.7925 53.6967 5.80037 54.5284 7.89398 54.5284H87.106C89.1996 54.5284 91.2075 53.6967 92.6879 52.2163C94.1683 50.7359 95 48.728 95 46.6344V7.89398C95 5.80037 94.1683 3.7925 92.6879 2.31209C91.2075 0.831685 89.1996 0 87.106 0V0ZM92.8223 46.6344C92.8209 48.15 92.2182 49.6031 91.1465 50.6748C90.0748 51.7466 88.6216 52.3493 87.106 52.3507H49.0407V2.17765H87.106C88.6216 2.17909 90.0748 2.78181 91.1465 3.85352C92.2182 4.92522 92.8209 6.37836 92.8223 7.89398V46.6344Z" fill="#F1F1F2"/>
<path d="M6.97935 40.6029H6.43494V39.2963H4.8997V40.6029H4.35529V37.6141H4.8997V38.839H6.45672V37.6141H7.00113L6.97935 40.6029Z" fill="#4A4A4A"/>
<path d="M9.66337 40.6023H7.62183V37.6135H9.66882V38.0762H8.16624V38.8493H9.63615V39.312H8.16624V40.1395H9.69059L9.66337 40.6023Z" fill="#4A4A4A"/>
<path d="M10.0117 41.1521V40.1885C10.1104 40.1852 10.2064 40.155 10.2893 40.1014C10.3751 40.0217 10.4373 39.92 10.469 39.8074C10.5371 39.5953 10.5809 39.3761 10.5997 39.1541L10.7739 37.6188H12.8045V40.1449H13.0658V41.1575H12.5214V40.6131H10.5343V41.1575L10.0117 41.1521ZM11.1005 39.1867C11.0881 39.541 10.949 39.879 10.7085 40.1395H12.2656V38.0761H11.2312L11.1005 39.1867Z" fill="#4A4A4A"/>
<path d="M14.9931 40.6023H13.4851V37.6135H14.955C15.0686 37.6069 15.1823 37.6227 15.2897 37.66C15.3972 37.6974 15.4962 37.7556 15.5811 37.8312C15.6553 37.9008 15.714 37.9853 15.7534 38.0791C15.7928 38.1729 15.812 38.2739 15.8097 38.3756C15.8132 38.5394 15.7593 38.6993 15.6573 38.8275C15.5652 38.9455 15.4339 39.0267 15.2871 39.0562C15.4508 39.0828 15.5975 39.1727 15.6954 39.3066C15.8056 39.444 15.8652 39.615 15.8642 39.7911C15.8685 39.8987 15.8503 40.0061 15.811 40.1064C15.7716 40.2066 15.7119 40.2976 15.6355 40.3736C15.5492 40.4527 15.4478 40.5137 15.3375 40.553C15.2271 40.5923 15.1101 40.609 14.9931 40.6023ZM14.8461 38.8493C14.9599 38.8555 15.0715 38.8164 15.1565 38.7404C15.1938 38.7047 15.2233 38.6615 15.243 38.6137C15.2627 38.5659 15.2722 38.5144 15.2708 38.4628C15.2726 38.4102 15.2634 38.3578 15.2437 38.3091C15.224 38.2603 15.1943 38.2162 15.1565 38.1797C15.0715 38.1037 14.9599 38.0645 14.8461 38.0708H14.0077V38.8438L14.8461 38.8493ZM14.8461 40.1395C14.9684 40.1472 15.089 40.1083 15.1837 40.0307C15.2603 39.9498 15.3029 39.8426 15.3029 39.7312C15.3029 39.6198 15.2603 39.5127 15.1837 39.4318C15.1382 39.3904 15.0849 39.3585 15.027 39.3379C14.969 39.3174 14.9075 39.3086 14.8461 39.312H14.0077V40.1395H14.8461Z" fill="#4A4A4A"/>
<path d="M16.8768 40.6023H16.3868V37.6135H16.9313V39.6877L18.4611 37.6135H19.0055V40.6023H18.4611V38.4682L16.8768 40.6023Z" fill="#4A4A4A"/>
<path d="M19.9747 40.6023H19.3268L20.6334 39.0235L19.4194 37.6135H20.0672L21.1234 38.9037V37.6135H21.6678V38.9037L22.7239 37.6135H23.3555L22.1414 39.0235L23.448 40.6023H22.8002L21.7767 39.3447L21.6297 39.5189V40.6077H21.0853V39.5189L20.9383 39.3447L19.9747 40.6023Z" fill="#4A4A4A"/>
<path d="M24.3025 40.6023H23.7962V37.6135H24.3406V39.6877L25.8704 37.6135H26.4148V40.6023H25.8704V38.4682L24.3025 40.6023Z" fill="#4A4A4A"/>
<path d="M30.1278 40.6023H29.5834V38.3811L28.6634 40.6023H28.4402L27.5473 38.3811V40.6023H27.0029V37.6135H27.7651L28.5763 39.5788L29.3983 37.6135H30.1387L30.1278 40.6023Z" fill="#4A4A4A"/>
<path d="M33.2526 40.2157C32.9571 40.4917 32.568 40.6451 32.1637 40.6451C31.7595 40.6451 31.3703 40.4917 31.0749 40.2157C30.7964 39.914 30.6417 39.5185 30.6417 39.1078C30.6417 38.6972 30.7964 38.3017 31.0749 38C31.3703 37.724 31.7595 37.5706 32.1637 37.5706C32.568 37.5706 32.9571 37.724 33.2526 38C33.5311 38.3017 33.6858 38.6972 33.6858 39.1078C33.6858 39.5185 33.5311 39.914 33.2526 40.2157ZM32.1637 40.1885C32.2986 40.1939 32.433 40.1693 32.5572 40.1166C32.6814 40.0639 32.7925 39.9843 32.8824 39.8836C33.0591 39.6648 33.1555 39.3919 33.1555 39.1106C33.1555 38.8292 33.0591 38.5564 32.8824 38.3375C32.7894 38.2407 32.6778 38.1636 32.5543 38.111C32.4308 38.0584 32.298 38.0313 32.1637 38.0313C32.0295 38.0313 31.8966 38.0584 31.7731 38.111C31.6497 38.1636 31.5381 38.2407 31.4451 38.3375C31.2688 38.5577 31.1728 38.8313 31.1728 39.1133C31.1728 39.3953 31.2688 39.6689 31.4451 39.8891C31.5349 39.9881 31.6453 40.0662 31.7685 40.1179C31.8917 40.1696 32.0248 40.1937 32.1583 40.1885H32.1637Z" fill="#4A4A4A"/>
<path d="M35.6264 40.6568C35.4203 40.6632 35.2149 40.6285 35.0224 40.5547C34.8298 40.4808 34.6539 40.3693 34.5049 40.2267C34.2233 39.9244 34.0667 39.5266 34.0667 39.1134C34.0667 38.7002 34.2233 38.3024 34.5049 38.0001C34.6535 37.8565 34.8292 37.744 35.0218 37.6692C35.2143 37.5944 35.4199 37.5588 35.6264 37.5645C35.8688 37.5568 36.1088 37.6149 36.3207 37.7329C36.5326 37.8508 36.7085 38.0241 36.8296 38.2342L36.3832 38.4628C36.3067 38.3322 36.198 38.2235 36.0674 38.1471C35.9358 38.0683 35.7852 38.0269 35.6319 38.0273C35.4949 38.0239 35.3587 38.0493 35.2321 38.1018C35.1055 38.1543 34.9913 38.2328 34.8969 38.3322C34.7075 38.5462 34.6029 38.8221 34.6029 39.1079C34.6029 39.3938 34.7075 39.6697 34.8969 39.8837C34.9913 39.9831 35.1055 40.0616 35.2321 40.1141C35.3587 40.1666 35.4949 40.192 35.6319 40.1886C35.7871 40.1903 35.9398 40.1488 36.0728 40.0688C36.2036 39.9926 36.3124 39.8838 36.3886 39.7531L36.835 39.9817C36.7133 40.1929 36.5366 40.3671 36.3238 40.4859C36.111 40.6048 35.8701 40.6638 35.6264 40.6568Z" fill="#4A4A4A"/>
<path d="M38.4845 40.6023H37.9401V38.0762H37.0581V37.6135H39.3937V38.0762H38.4845V40.6023Z" fill="#4A4A4A"/>
<path d="M39.8349 37.6135H40.3793V38.7023H41.1687C41.2999 38.6957 41.4311 38.7165 41.5539 38.7634C41.6767 38.8102 41.7884 38.8821 41.8819 38.9745C42.0502 39.1558 42.1438 39.394 42.1438 39.6414C42.1438 39.8888 42.0502 40.127 41.8819 40.3083C41.7877 40.3994 41.6758 40.4701 41.5531 40.516C41.4304 40.5619 41.2995 40.582 41.1687 40.5751H39.8349V37.6135ZM41.0761 39.1977H40.3575V40.1504H41.0761C41.2096 40.1531 41.3394 40.1066 41.4409 40.0198C41.4868 39.9747 41.5233 39.9209 41.5482 39.8615C41.5731 39.8022 41.5859 39.7384 41.5859 39.6741C41.5859 39.6097 41.5731 39.546 41.5482 39.4866C41.5233 39.4273 41.4868 39.3735 41.4409 39.3284C41.3394 39.2416 41.2096 39.1951 41.0761 39.1977Z" fill="#4A4A4A"/>
<path d="M70.142 24.0739C70.1682 23.4472 70.0626 22.8219 69.8319 22.2386C69.6012 21.6553 69.2506 21.1269 68.8027 20.6877C68.3301 20.2484 67.7748 19.9076 67.1691 19.6852C66.5634 19.4627 65.9195 19.363 65.275 19.392H59.1666C59.0511 19.392 58.9404 19.4379 58.8587 19.5195C58.777 19.6012 58.7311 19.712 58.7311 19.8275V33.8679C58.7311 33.9834 58.777 34.0942 58.8587 34.1759C58.9404 34.2576 59.0511 34.3034 59.1666 34.3034H60.9088C61.0243 34.3034 61.1351 34.2576 61.2167 34.1759C61.2984 34.0942 61.3443 33.9834 61.3443 33.8679V28.7395H63.9357L67.1151 34.0857C67.1552 34.1531 67.2128 34.2084 67.2818 34.2458C67.3508 34.2832 67.4286 34.3012 67.507 34.298H69.4887C69.5662 34.2979 69.6423 34.2772 69.709 34.2379C69.7758 34.1986 69.8309 34.1422 69.8687 34.0745C69.9064 34.0068 69.9254 33.9303 69.9236 33.8528C69.9219 33.7754 69.8996 33.6998 69.8589 33.6338L66.6305 28.4456C67.5988 28.2915 68.4837 27.8067 69.1348 27.0736C69.8405 26.2386 70.2008 25.1656 70.142 24.0739ZM66.7449 25.7943C66.2406 26.2365 65.5858 26.4684 64.9156 26.4421H61.3443V21.7057H64.9156C65.5858 21.68 66.2403 21.9118 66.7449 22.3536C66.9714 22.5792 67.1511 22.8473 67.2737 23.1425C67.3963 23.4377 67.4595 23.7543 67.4595 24.0739C67.4595 24.3936 67.3963 24.7101 67.2737 25.0054C67.1511 25.3006 66.9714 25.5687 66.7449 25.7943Z" fill="#F1F1F2"/>
<path d="M84.422 19.4029H82.7888C82.6733 19.4029 82.5625 19.4488 82.4808 19.5305C82.3992 19.6121 82.3533 19.7229 82.3533 19.8384V28.3367C82.4112 29.3723 82.079 30.392 81.4223 31.1949C80.6946 31.8695 79.7389 32.2443 78.7465 32.2443C77.7542 32.2443 76.7985 31.8695 76.0708 31.1949C75.4077 30.3949 75.0714 29.3741 75.1289 28.3367V19.8384C75.1289 19.7229 75.083 19.6121 75.0014 19.5305C74.9197 19.4488 74.8089 19.4029 74.6934 19.4029H73.0601C72.9446 19.4029 72.8339 19.4488 72.7522 19.5305C72.6705 19.6121 72.6246 19.7229 72.6246 19.8384V28.4293C72.5353 30.0725 73.0944 31.6852 74.1816 32.9207C75.2197 34.0095 76.7422 34.5539 78.7493 34.5539C80.7563 34.5539 82.2716 34.0095 83.2951 32.9207C84.3331 31.8318 84.8521 30.3274 84.8521 28.4075V19.8384C84.8521 19.7239 84.807 19.6139 84.7265 19.5324C84.646 19.4508 84.5366 19.4043 84.422 19.4029Z" fill="#F1F1F2"/>
<path d="M51.1421 28.4237H49.0407V34.2979H51.1421C51.3457 34.2979 51.541 34.217 51.6849 34.0731C51.8289 33.9291 51.9098 33.7339 51.9098 33.5303V29.175C51.9055 28.9743 51.8227 28.7832 51.6792 28.6427C51.5357 28.5023 51.3429 28.4237 51.1421 28.4237Z" fill="#F1F1F2"/>
<path d="M15.1294 19.4028H13.7357C13.6202 19.4028 13.5095 19.4487 13.4278 19.5304C13.3461 19.6121 13.3002 19.7229 13.3002 19.8384V29.7467L6.81081 19.5988C6.77169 19.5375 6.71781 19.4869 6.65409 19.4517C6.59037 19.4165 6.51885 19.3978 6.44606 19.3974H4.81282C4.69731 19.3974 4.58653 19.4433 4.50485 19.525C4.42318 19.6066 4.37729 19.7174 4.37729 19.8329V33.8679C4.37729 33.9834 4.42318 34.0942 4.50485 34.1759C4.58653 34.2575 4.69731 34.3034 4.81282 34.3034H6.21196C6.32747 34.3034 6.43825 34.2575 6.51993 34.1759C6.6016 34.0942 6.64749 33.9834 6.64749 33.8679V23.671L13.2458 34.102C13.2855 34.1624 13.3397 34.2119 13.4034 34.2461C13.467 34.2803 13.5382 34.2981 13.6105 34.298H15.1294C15.2449 34.298 15.3557 34.2521 15.4374 34.1704C15.5191 34.0887 15.565 33.978 15.565 33.8624V19.8384C15.565 19.7229 15.5191 19.6121 15.4374 19.5304C15.3557 19.4487 15.2449 19.4028 15.1294 19.4028Z" fill="#4A4A4A"/>
<path d="M23.0178 19.4028H18.4719C18.3564 19.4028 18.2456 19.4487 18.164 19.5304C18.0823 19.612 18.0364 19.7228 18.0364 19.8383V33.8678C18.0364 33.9833 18.0823 34.0941 18.164 34.1758C18.2456 34.2575 18.3564 34.3034 18.4719 34.3034H23.0178C23.9884 34.3416 24.9562 34.1763 25.8591 33.8181C26.762 33.46 27.58 32.9169 28.2605 32.2237C28.9339 31.5078 29.4579 30.6648 29.8018 29.7441C30.1458 28.8234 30.3029 27.8434 30.2639 26.8613C30.3038 25.8749 30.1461 24.8904 29.8002 23.9658C29.4543 23.0412 28.9271 22.195 28.2496 21.477C27.5697 20.7865 26.7532 20.2454 25.8524 19.8882C24.9516 19.5311 23.9861 19.3658 23.0178 19.4028ZM26.4857 30.5251C26.055 31.0151 25.5198 31.402 24.9196 31.6573C24.3193 31.9127 23.6694 32.03 23.0178 32.0005H20.4645V21.7057H23.0178C23.6729 21.6705 24.3275 21.7829 24.9333 22.0344C25.5392 22.286 26.0809 22.6704 26.5184 23.1592C27.3789 24.1979 27.8231 25.5191 27.7651 26.8667C27.8091 28.203 27.3529 29.5075 26.4857 30.5251Z" fill="#4A4A4A"/>
<path d="M44.3752 19.4028H42.546C42.4549 19.4024 42.3661 19.4306 42.2919 19.4833C42.2176 19.5361 42.1618 19.6107 42.1322 19.6968L38.0437 31.467L33.9443 19.6968C33.9147 19.6107 33.8588 19.5361 33.7846 19.4833C33.7104 19.4306 33.6215 19.4024 33.5305 19.4028H31.7067C31.637 19.4031 31.5684 19.4201 31.5066 19.4524C31.4449 19.4847 31.3917 19.5313 31.3517 19.5884C31.3117 19.6455 31.286 19.7113 31.2767 19.7804C31.2675 19.8495 31.2749 19.9197 31.2984 19.9854L36.4213 34.0149C36.4515 34.0991 36.5069 34.1719 36.58 34.2236C36.653 34.2752 36.7402 34.3031 36.8296 34.3034H39.2523C39.3417 34.3031 39.4289 34.2752 39.502 34.2236C39.575 34.1719 39.6304 34.0991 39.6606 34.0149L44.7835 19.9854C44.807 19.9197 44.8145 19.8495 44.8052 19.7804C44.7959 19.7113 44.7702 19.6455 44.7302 19.5884C44.6902 19.5313 44.6371 19.4847 44.5753 19.4524C44.5135 19.4201 44.4449 19.4031 44.3752 19.4028Z" fill="#4A4A4A"/>
<path d="M47.0265 28.4236C46.8267 28.4279 46.6365 28.5099 46.4962 28.6522C46.3559 28.7945 46.2766 28.986 46.2752 29.1858V33.5411C46.278 33.74 46.3579 33.9301 46.498 34.0712C46.6382 34.2124 46.8277 34.2936 47.0265 34.2979H49.0463V28.4236H47.0265Z" fill="#4A4A4A"/>
</svg>
