<svg width="95" height="48" viewBox="0 0 95 48" fill="none" xmlns="http://www.w3.org/2000/svg">
<path d="M27.788 27.1238C26.4652 27.1061 25.153 27.362 23.9339 27.8754C22.7148 28.3889 21.6152 29.1488 20.7041 30.1074C18.8283 32.0337 17.7788 34.6156 17.7788 37.3035C17.7788 39.9914 18.8283 42.5733 20.7041 44.4996C21.6154 45.458 22.7151 46.2177 23.9341 46.7311C25.1532 47.2446 26.4653 47.5006 27.788 47.4832C30.1352 47.4918 32.4082 46.6613 34.1963 45.1417C34.2588 45.0897 34.3091 45.0245 34.3436 44.9508C34.378 44.8772 34.3958 44.7968 34.3957 44.7155V43.7302C34.3963 43.6202 34.3642 43.5126 34.3034 43.421C34.2426 43.3293 34.1558 43.2579 34.0542 43.2157C33.9526 43.1736 33.8408 43.1626 33.7329 43.1842C33.625 43.2059 33.5261 43.2591 33.4486 43.3372C32.7366 44.0738 31.8813 44.657 30.9353 45.0509C29.9893 45.4448 28.9727 45.641 27.948 45.6275C26.9233 45.6141 25.9122 45.3911 24.9769 44.9725C24.0417 44.5538 23.202 43.9483 22.5097 43.1932C21.7506 42.415 21.1543 41.4932 20.7559 40.4819C20.3574 39.4707 20.1647 38.3901 20.189 37.3035C20.1526 35.1091 20.9869 32.9896 22.5097 31.4082C23.2028 30.6542 24.0429 30.0498 24.9784 29.6321C25.9138 29.2144 26.9248 28.9922 27.9492 28.9793C28.9737 28.9663 29.99 29.1628 30.9357 29.5567C31.8814 29.9506 32.7366 30.5336 33.4486 31.2699C33.5261 31.3479 33.625 31.4012 33.7329 31.4228C33.8408 31.4444 33.9526 31.4334 34.0542 31.3913C34.1558 31.3491 34.2426 31.2777 34.3034 31.186C34.3642 31.0944 34.3963 30.9868 34.3957 30.8768V29.8915C34.3958 29.8102 34.378 29.7298 34.3436 29.6562C34.3091 29.5825 34.2588 29.5173 34.1963 29.4653C32.4094 27.9435 30.1357 27.1127 27.788 27.1238Z" fill="#F1F1F2"/>
<path d="M47.395 45.1362H44.5814V32.15C44.5814 32.0032 44.523 31.8624 44.4191 31.7586C44.3153 31.6548 44.1744 31.5964 44.0275 31.5964H43.0915C42.9446 31.5964 42.8037 31.6548 42.6998 31.7586C42.596 31.8624 42.5376 32.0032 42.5376 32.15V46.2377C42.5376 46.3845 42.596 46.5253 42.6998 46.6292C42.8037 46.733 42.9446 46.7913 43.0915 46.7913H47.395C47.5419 46.7913 47.6828 46.733 47.7867 46.6292C47.8905 46.5253 47.9489 46.3845 47.9489 46.2377V45.6842C47.9474 45.5383 47.8884 45.399 47.7847 45.2963C47.681 45.1937 47.541 45.1362 47.395 45.1362Z" fill="#F1F1F2"/>
<path d="M63.3133 31.5964H62.3828C62.2359 31.5964 62.0951 31.6548 61.9912 31.7586C61.8873 31.8624 61.829 32.0032 61.829 32.15V42.6231C61.8511 43.3284 61.599 44.0148 61.1256 44.5383C60.9065 44.7839 60.6363 44.9786 60.3339 45.1087C60.0316 45.2387 59.7044 45.301 59.3753 45.2912C59.0468 45.2859 58.723 45.2124 58.4245 45.0751C58.126 44.9379 57.8594 44.74 57.6417 44.4941C57.3903 44.2519 57.191 43.9612 57.0557 43.6395C56.9205 43.3178 56.8523 42.972 56.8552 42.6231V32.15C56.8552 32.0032 56.7969 31.8624 56.693 31.7586C56.5891 31.6548 56.4483 31.5964 56.3014 31.5964H55.7918C55.6449 31.5964 55.504 31.6548 55.4002 31.7586C55.2963 31.8624 55.2379 32.0032 55.2379 32.15V42.6231C55.2334 43.1887 55.3423 43.7496 55.5583 44.2725C55.7742 44.7954 56.0928 45.2698 56.4952 45.6676C56.8923 46.0726 57.3663 46.3944 57.8893 46.6141C58.4124 46.8337 58.9741 46.9469 59.5415 46.9469C60.1089 46.9469 60.6706 46.8337 61.1936 46.6141C61.7167 46.3944 62.1907 46.0726 62.5878 45.6676C62.9947 45.272 63.3177 44.7986 63.5375 44.2755C63.7573 43.7524 63.8695 43.1904 63.8672 42.6231V32.15C63.8672 32.0032 63.8088 31.8624 63.705 31.7586C63.6011 31.6548 63.4602 31.5964 63.3133 31.5964Z" fill="#F1F1F2"/>
<path d="M76.4345 39.9494C76.1354 39.5163 75.7601 39.1412 75.3267 38.8423C75.6735 38.5777 75.9763 38.2602 76.224 37.9013C76.6405 37.2912 76.882 36.5789 76.9224 35.8415C76.9627 35.104 76.8003 34.3696 76.4528 33.7178C76.1054 33.066 75.586 32.5217 74.9511 32.1439C74.3162 31.766 73.5899 31.569 72.8509 31.5743H71.9149C71.768 31.5743 71.6271 31.6326 71.5232 31.7364C71.4194 31.8402 71.361 31.981 71.361 32.1278V46.2377C71.361 46.3845 71.4194 46.5253 71.5232 46.6291C71.6271 46.7329 71.768 46.7912 71.9149 46.7912H72.8509C73.6481 46.7938 74.4306 46.5777 75.1133 46.1662C75.7959 45.7548 76.3524 45.164 76.7221 44.4582C77.0918 43.7524 77.2605 42.9586 77.2097 42.1636C77.159 41.3685 76.8909 40.6026 76.4345 39.9494ZM73.4325 38.0009V33.2903C73.9698 33.4109 74.45 33.7106 74.7943 34.1402C75.1385 34.5697 75.3263 35.1035 75.3267 35.6539C75.3336 35.9709 75.274 36.2858 75.1519 36.5785C75.0299 36.8711 74.8479 37.135 74.6178 37.3533C74.2953 37.6813 73.8829 37.9067 73.4325 38.0009ZM73.4325 45.0531V39.8553C73.8974 39.9583 74.3263 40.1834 74.675 40.5074C75.0237 40.8315 75.2796 41.2426 75.4162 41.6985C75.5528 42.1543 75.5652 42.6384 75.4521 43.1006C75.339 43.5628 75.1045 43.9865 74.7729 44.328C74.4099 44.6999 73.9425 44.9527 73.4325 45.0531Z" fill="#F1F1F2"/>
<path d="M6.45296 8.69623C5.4401 8.43056 4.47427 8.01047 3.58946 7.45075C3.2357 7.23452 2.94345 6.93109 2.74075 6.56954C2.53805 6.20799 2.43169 5.80046 2.43187 5.38602C2.40317 4.46192 2.73482 3.56281 3.35683 2.87846C3.64365 2.55437 3.99816 2.29717 4.39533 2.125C4.7925 1.95284 5.22264 1.86991 5.65539 1.88208C6.1084 1.87385 6.55815 1.96019 6.97587 2.13557C7.39359 2.31095 7.77011 2.57151 8.08134 2.9006C8.40835 3.22094 8.66644 3.60466 8.83978 4.02824C9.01312 4.45182 9.09806 4.90633 9.08938 5.36388C9.08938 5.51069 9.14773 5.65149 9.2516 5.7553C9.35547 5.85911 9.49635 5.91743 9.64325 5.91743H10.3522C10.4991 5.91743 10.64 5.85911 10.7438 5.7553C10.8477 5.65149 10.9061 5.51069 10.9061 5.36388C10.9174 4.66435 10.7879 3.96968 10.5253 3.32114C10.2627 2.67261 9.87233 2.08346 9.37739 1.5887C8.8977 1.08676 8.31959 0.689074 7.67918 0.420489C7.03878 0.151904 6.34983 0.0181884 5.65539 0.0276953C4.9628 0.0197141 4.27598 0.154171 3.63759 0.42271C2.9992 0.691249 2.42289 1.08813 1.94447 1.5887C1.44472 2.08073 1.05009 2.66901 0.78447 3.31792C0.518853 3.96683 0.387775 4.66286 0.399174 5.36388C0.383014 6.72344 0.904523 8.03441 1.85031 9.01175C2.79035 9.96466 3.96835 10.6489 5.26214 10.9934C7.85425 11.7407 9.13923 12.9253 9.13923 14.6192C9.17508 15.6326 8.82469 16.6218 8.15888 17.3869C7.856 17.7456 7.47612 18.0313 7.04748 18.223C6.61884 18.4147 6.15248 18.5073 5.68308 18.494C5.18636 18.5051 4.6928 18.4123 4.23403 18.2217C3.77526 18.031 3.3614 17.7467 3.01897 17.3869C2.65888 17.032 2.37493 16.6074 2.18448 16.1392C1.99402 15.6709 1.90105 15.1688 1.91124 14.6635C1.91124 14.5166 1.85288 14.3759 1.74901 14.272C1.64514 14.1682 1.50426 14.1099 1.35737 14.1099H0.554258C0.407363 14.1099 0.266484 14.1682 0.162613 14.272C0.0587427 14.3759 0.000388777 14.5166 0.000388777 14.6635C-0.0084673 15.4157 0.134061 16.162 0.419504 16.8581C0.704947 17.5541 1.12748 18.1858 1.662 18.7154C2.17685 19.2562 2.79762 19.6851 3.48562 19.9756C4.17362 20.2661 4.9141 20.4118 5.66093 20.4037C6.40707 20.4127 7.14699 20.2673 7.83423 19.9768C8.52146 19.6863 9.14113 19.2568 9.65432 18.7154C10.1897 18.1876 10.6129 17.557 10.8984 16.8617C11.1839 16.1664 11.3259 15.4205 11.3159 14.669C11.3049 11.6577 9.67094 9.66494 6.45296 8.69623Z" fill="#F1F1F2"/>
<path d="M24.3319 18.0123H21.5183V5.02608C21.5183 4.87927 21.4599 4.73847 21.3561 4.63466C21.2522 4.53085 21.1113 4.47253 20.9644 4.47253H20.0339C19.887 4.47253 19.7461 4.53085 19.6423 4.63466C19.5384 4.73847 19.48 4.87927 19.48 5.02608V19.1138C19.48 19.2606 19.5384 19.4014 19.6423 19.5052C19.7461 19.6091 19.887 19.6674 20.0339 19.6674H24.3319C24.4788 19.6674 24.6197 19.6091 24.7236 19.5052C24.8274 19.4014 24.8858 19.2606 24.8858 19.1138V18.5603C24.8843 18.4144 24.8253 18.2751 24.7216 18.1724C24.6179 18.0698 24.4779 18.0123 24.3319 18.0123Z" fill="#F1F1F2"/>
<path d="M34.6396 4.47253H33.7035C33.3976 4.47253 33.1497 4.72037 33.1497 5.02608V19.1138C33.1497 19.4195 33.3976 19.6674 33.7035 19.6674H34.6396C34.9455 19.6674 35.1934 19.4195 35.1934 19.1138V5.02608C35.1934 4.72037 34.9455 4.47253 34.6396 4.47253Z" fill="#F1F1F2"/>
<path d="M49.1563 3.80279C49.0243 3.80088 48.896 3.84611 48.7945 3.93034C48.6929 4.01457 48.6248 4.13227 48.6024 4.26224L47.9655 7.84922L47.3451 4.26224C47.3227 4.13227 47.2546 4.01457 47.153 3.93034C47.0515 3.84611 46.9232 3.80088 46.7913 3.80279C46.6593 3.80088 46.531 3.84611 46.4295 3.93034C46.3279 4.01457 46.2598 4.13227 46.2374 4.26224L43.6453 19.0198C43.6314 19.0999 43.6354 19.1822 43.657 19.2606C43.6786 19.339 43.7172 19.4118 43.77 19.4736C43.8229 19.5354 43.8888 19.5849 43.963 19.6184C44.0371 19.6519 44.1178 19.6686 44.1991 19.6674H44.753C44.885 19.6693 45.0133 19.6241 45.1148 19.5399C45.2164 19.4557 45.2845 19.338 45.3069 19.208L46.5974 11.9067L47.1845 15.4992C47.2069 15.6292 47.275 15.7469 47.3766 15.8311C47.4781 15.9154 47.6064 15.9606 47.7384 15.9587C47.8703 15.9606 47.9986 15.9154 48.1002 15.8311C48.2017 15.7469 48.2698 15.6292 48.2922 15.4992L48.9292 11.9122L50.1975 19.208C50.22 19.338 50.2881 19.4557 50.3896 19.5399C50.4912 19.6241 50.6195 19.6693 50.7514 19.6674H51.7705C51.8519 19.6686 51.9326 19.6519 52.0067 19.6184C52.0809 19.5849 52.1468 19.5354 52.1996 19.4736C52.2525 19.4118 52.2911 19.339 52.3127 19.2606C52.3342 19.1822 52.3382 19.0999 52.3244 19.0198L49.7046 4.26224C49.6823 4.13321 49.615 4.01626 49.5146 3.93214C49.4142 3.84803 49.2873 3.8022 49.1563 3.80279Z" fill="#F1F1F2"/>
<path d="M80.0012 4.47253H79.0652C78.7593 4.47253 78.5113 4.72037 78.5113 5.02608V19.1138C78.5113 19.4195 78.7593 19.6674 79.0652 19.6674H80.0012C80.3071 19.6674 80.5551 19.4195 80.5551 19.1138V5.02608C80.5551 4.72037 80.3071 4.47253 80.0012 4.47253Z" fill="#F1F1F2"/>
<path d="M94.4463 4.47253H89.7273C89.5804 4.47253 89.4396 4.53085 89.3357 4.63466C89.2318 4.73847 89.1735 4.87927 89.1735 5.02608V5.57963C89.1735 5.72644 89.2318 5.86723 89.3357 5.97104C89.4396 6.07485 89.5804 6.13317 89.7273 6.13317H91.0732V19.1138C91.0732 19.2606 91.1316 19.4014 91.2355 19.5052C91.3393 19.6091 91.4802 19.6674 91.6271 19.6674H92.5631C92.71 19.6674 92.8509 19.6091 92.9548 19.5052C93.0586 19.4014 93.117 19.2606 93.117 19.1138V6.1221H94.4463C94.5932 6.1221 94.7341 6.06378 94.8379 5.95997C94.9418 5.85616 95.0002 5.71537 95.0002 5.56856V5.01501C94.9973 4.87013 94.9376 4.73216 94.8341 4.63073C94.7305 4.5293 94.5913 4.47251 94.4463 4.47253Z" fill="#F1F1F2"/>
<path d="M70.6798 0H62.5877C62.4408 0 62.3 0.0583199 62.1961 0.16213C62.0922 0.26594 62.0339 0.406737 62.0339 0.553546V19.7505C62.0339 19.8973 62.0922 20.0381 62.1961 20.1419C62.3 20.2458 62.4408 20.3041 62.5877 20.3041H63.6955C63.8424 20.3041 63.9833 20.2458 64.0871 20.1419C64.191 20.0381 64.2494 19.8973 64.2494 19.7505V7.68322H70.6576C70.8045 7.68322 70.9454 7.6249 71.0493 7.52109C71.1531 7.41728 71.2115 7.27649 71.2115 7.12968V6.91379C71.2115 6.76698 71.1531 6.62619 71.0493 6.52238C70.9454 6.41857 70.8045 6.36025 70.6576 6.36025H64.2494V1.32298H70.6576C70.8045 1.32298 70.9454 1.26466 71.0493 1.16085C71.1531 1.05704 71.2115 0.916239 71.2115 0.769429V0.553546C71.2116 0.410494 71.1563 0.272951 71.0572 0.169755C70.958 0.0665585 70.8228 0.00572206 70.6798 0V0Z" fill="#F1F1F2"/>
</svg>
