<svg width="1160" height="597" viewBox="0 0 1160 597" fill="none" xmlns="http://www.w3.org/2000/svg">
<g opacity="0.25">
<path d="M146.09 513.587H146.103L146.117 513.587C160.459 513.2 172.139 509.133 180.207 499.776C188.123 490.597 192.413 476.497 192.549 456.294H192.743V455.294V141.706C192.743 120.873 188.444 106.411 180.397 97.0804C172.327 87.7218 160.644 83.7028 146.3 83.4129L146.29 83.4127H146.28H92.2572H91.2572V84.4127V512.587V513.587H92.2572H146.09ZM92.2572 1H146.28C191.563 1 225.314 13.4083 247.943 37.0961C270.582 60.7935 282.24 95.9362 283 141.716V455.284C282.24 501.064 270.582 536.206 247.943 559.904C225.314 583.592 191.563 596 146.28 596H92.2572H1V512.587V84.4127V1H92.2572Z" stroke="#8C8C8C" stroke-width="2"/>
<path d="M927.273 28.6587L927.904 29.1719L928.535 28.6587C950.847 10.5112 981.737 1 1021.51 1C1067.08 1 1101.02 13.4093 1123.77 37.098C1146.53 60.7951 1158.24 95.9363 1159 141.714V596H1068.35V141.706C1068.35 120.873 1064.04 106.41 1055.95 97.0788C1047.85 87.721 1036.12 83.7028 1021.72 83.4129L1021.69 83.4124L1021.67 83.413C1007.27 83.7995 995.543 87.8665 987.441 97.222C979.491 106.402 975.183 120.502 975.046 140.706H974.279V141.706V596H880.957V141.706C880.957 120.873 876.64 106.41 868.559 97.0788C860.455 87.721 848.725 83.7028 834.322 83.4129L834.299 83.4124L834.275 83.413C819.875 83.7995 808.147 87.8665 800.045 97.222C791.965 106.552 787.647 120.967 787.647 141.706V596H697V141.715C697.763 95.9368 709.47 60.795 732.205 37.0976C754.93 13.409 788.826 1 834.302 1C874.072 1 904.962 10.5112 927.273 28.6587Z" stroke="#8C8C8C" stroke-width="2"/>
<path d="M492.792 256.939L492.802 256.939H492.812H501.188C546.502 256.939 580.275 269.339 602.92 293.036C625.573 316.742 637.24 351.909 638 397.755V455.377C637.24 501.126 625.573 536.245 602.92 559.927C580.275 583.599 546.502 596 501.188 596C455.779 596 421.957 583.552 399.313 559.855C376.826 536.325 365.212 501.547 364.392 456.384H454.698C454.834 476.668 459.126 490.808 467.048 499.983C475.124 509.335 486.815 513.351 501.167 513.641L501.191 513.642L501.215 513.641C515.566 513.255 527.253 509.19 535.327 499.839C543.378 490.515 547.681 476.11 547.681 455.384V397.746C547.681 376.926 543.379 362.472 535.327 353.147C527.251 343.795 515.561 339.778 501.208 339.489L501.198 339.488H501.188H492.812C447.404 339.488 413.582 327.04 390.937 303.344C368.284 279.638 356.665 244.519 356 198.865V141.624C356.76 95.8748 368.426 60.7553 391.08 37.0733C413.725 13.4005 447.498 1 492.812 1C538.126 1 571.9 13.4005 594.545 37.0498C617.031 60.5336 628.692 95.2632 629.606 140.425H539.302C539.166 120.141 534.874 106.002 526.952 96.8265C518.876 87.474 507.185 83.4578 492.833 83.168L492.809 83.1676L492.785 83.1682C478.434 83.5545 466.747 87.6194 458.673 96.9697C450.622 106.294 446.319 120.699 446.319 141.425V198.682C446.319 219.502 450.621 233.955 458.673 243.28C466.749 252.633 478.439 256.649 492.792 256.939Z" stroke="#8C8C8C" stroke-width="2"/>
</g>
</svg>
