<svg width="60" height="31" viewBox="0 0 60 31" fill="none" xmlns="http://www.w3.org/2000/svg">
<path d="M7.59506 0H4.79012H0V4.36543V26.5086V30.8741H4.79012H7.59506C12.316 30.8741 14.6667 28.2963 14.7457 23.5457V7.32839C14.6667 2.57778 12.316 0 7.59506 0ZM9.94567 23.5457C9.94567 25.679 9.05679 26.4691 7.58518 26.5086H4.79012V4.36543H7.59506C9.06666 4.39506 9.95555 5.18518 9.95555 7.32839V23.5457H9.94567Z" fill="#F1F1F2"/>
<path d="M52.8395 0C50.7753 0 49.1654 0.493827 48 1.44197C46.8346 0.493827 45.2247 0 43.1605 0C38.4395 0 36.0889 2.57778 36.0099 7.32839V30.8741H40.8V7.32839C40.8 5.19506 41.6889 4.40494 43.1605 4.36543C44.6321 4.39506 45.521 5.18518 45.521 7.32839V30.8741H50.4494V7.32839H50.4889C50.4889 5.19506 51.3778 4.40494 52.8494 4.36543C54.321 4.39506 55.2099 5.18518 55.2099 7.32839V30.8741H60V7.32839C59.921 2.57778 57.5704 0 52.8395 0Z" fill="#F1F1F2"/>
<path d="M25.8963 13.2444H25.4617C23.9901 13.2148 23.1012 12.4247 23.1012 10.2815V7.31852C23.1012 5.18518 23.9901 4.39506 25.4617 4.35555C26.9333 4.38518 27.8222 5.17531 27.8222 7.31852H32.6123C32.5333 2.57778 30.1827 0 25.4617 0C20.7407 0 18.3901 2.57778 18.3111 7.32839V10.2914C18.3802 15.0321 20.7308 17.6197 25.4617 17.6197H25.8963C27.3679 17.6494 28.2568 18.4395 28.2568 20.5827V23.5654C28.2568 25.6988 27.3679 26.4889 25.8963 26.5284C24.4247 26.4988 23.5358 25.7086 23.5358 23.5654H18.7457C18.8148 28.3062 21.1654 30.8938 25.8963 30.8938C30.6173 30.8938 32.9679 28.316 33.0469 23.5654V20.5827C32.9679 15.8222 30.6173 13.2444 25.8963 13.2444Z" fill="#F1F1F2"/>
</svg>
