<svg width="42" height="42" viewBox="0 0 42 42" fill="none" xmlns="http://www.w3.org/2000/svg">
<path fill-rule="evenodd" clip-rule="evenodd" d="M28.4377 24.3907C28.0117 24.1784 25.917 23.1526 25.5265 23.011C25.136 22.8695 24.852 22.7988 24.5679 23.2233C24.2839 23.6478 23.4674 24.603 23.2188 24.8859C22.9704 25.1689 22.7218 25.2043 22.2958 24.9921C21.8697 24.7798 20.497 24.3321 18.8696 22.8874C17.6031 21.7631 16.748 20.3744 16.4995 19.9499C16.251 19.5254 16.4731 19.2959 16.6864 19.0845C16.878 18.8945 17.1124 18.5893 17.3254 18.3416C17.5384 18.094 17.6094 17.9171 17.7514 17.6342C17.8934 17.3511 17.8224 17.1035 17.7159 16.8913C17.6094 16.679 16.7574 14.5919 16.4023 13.7429C16.0565 12.916 15.7053 13.0279 15.4437 13.0149C15.1955 13.0026 14.9112 13 14.6272 13C14.3432 13 13.8816 13.1061 13.4911 13.5306C13.1006 13.9551 12 14.981 12 17.0681C12 19.1552 13.5266 21.1716 13.7396 21.4546C13.9526 21.7376 16.7438 26.0207 21.0177 27.8574C22.0342 28.2943 22.8278 28.5552 23.4465 28.7507C24.4671 29.0734 25.3959 29.0278 26.13 28.9187C26.9486 28.797 28.6507 27.8929 29.0057 26.9023C29.3608 25.9118 29.3608 25.0628 29.2543 24.886C29.1478 24.7091 28.8638 24.603 28.4377 24.3907Z" fill="#F1F1F2"/>
<path d="M41 21C41 32.0457 32.0457 41 21 41C9.95431 41 1 32.0457 1 21C1 9.95431 9.95431 1 21 1C32.0457 1 41 9.95431 41 21Z" stroke="#F1F1F2" stroke-width="2"/>
</svg>
